<svg width="20" height="39" viewBox="0 0 20 39" fill="none" xmlns="http://www.w3.org/2000/svg">
<path d="M1 37.8539H0V38.8539H1V37.8539ZM1 15.8343L0.0131115 15.6729L0 15.7531V15.8343H1ZM10.588 1.8245C11.0433 1.51198 11.1591 0.889494 10.8466 0.434136C10.5341 -0.0212219 9.91161 -0.137017 9.45625 0.175501L10.588 1.8245ZM2 37.8539C2 37.8371 2 37.8203 2 37.8035C2 37.7867 2 37.7698 2 37.7529C2 37.7361 2 37.7192 2 37.7023C2 37.6854 2 37.6685 2 37.6515C2 37.6346 2 37.6176 2 37.6006C2 37.5837 2 37.5667 2 37.5497C2 37.5326 2 37.5156 2 37.4986C2 37.4815 2 37.4645 2 37.4474C2 37.4303 2 37.4132 2 37.3961C2 37.379 2 37.3618 2 37.3447C2 37.3275 2 37.3104 2 37.2932C2 37.276 2 37.2588 2 37.2416C2 37.2244 2 37.2071 2 37.1899C2 37.1726 2 37.1554 2 37.1381C2 37.1208 2 37.1035 2 37.0862C2 37.0689 2 37.0515 2 37.0342C2 37.0168 2 36.9995 2 36.9821C2 36.9647 2 36.9473 2 36.9299C2 36.9125 2 36.8951 2 36.8776C2 36.8602 2 36.8427 2 36.8252C2 36.8078 2 36.7903 2 36.7728C2 36.7552 2 36.7377 2 36.7202C2 36.7026 2 36.6851 2 36.6675C2 36.65 2 36.6324 2 36.6148C2 36.5972 2 36.5796 2 36.5619C2 36.5443 2 36.5266 2 36.509C2 36.4913 2 36.4737 2 36.456C2 36.4383 2 36.4206 2 36.4029C2 36.3851 2 36.3674 2 36.3497C2 36.3319 2 36.3141 2 36.2964C2 36.2786 2 36.2608 2 36.243C2 36.2252 2 36.2074 2 36.1895C2 36.1717 2 36.1539 2 36.136C2 36.1181 2 36.1003 2 36.0824C2 36.0645 2 36.0466 2 36.0287C2 36.0107 2 35.9928 2 35.9749C2 35.9569 2 35.939 2 35.921C2 35.903 2 35.885 2 35.8671C2 35.8491 2 35.831 2 35.813C2 35.795 2 35.777 2 35.7589C2 35.7409 2 35.7228 2 35.7047C2 35.6866 2 35.6686 2 35.6505C2 35.6324 2 35.6143 2 35.5961C2 35.578 2 35.5599 2 35.5417C2 35.5236 2 35.5054 2 35.4872C2 35.469 2 35.4509 2 35.4327C2 35.4145 2 35.3962 2 35.378C2 35.3598 2 35.3416 2 35.3233C2 35.3051 2 35.2868 2 35.2685C2 35.2503 2 35.232 2 35.2137C2 35.1954 2 35.1771 2 35.1588C2 35.1404 2 35.1221 2 35.1038C2 35.0854 2 35.0671 2 35.0487C2 35.0304 2 35.012 2 34.9936C2 34.9752 2 34.9568 2 34.9384C2 34.92 2 34.9016 2 34.8832C2 34.8647 2 34.8463 2 34.8278C2 34.8094 2 34.7909 2 34.7725C2 34.754 2 34.7355 2 34.717C2 34.6985 2 34.68 2 34.6615C2 34.643 2 34.6245 2 34.6059C2 34.5874 2 34.5689 2 34.5503C2 34.5317 2 34.5132 2 34.4946C2 34.476 2 34.4575 2 34.4389C2 34.4203 2 34.4017 2 34.3831C2 34.3644 2 34.3458 2 34.3272C2 34.3086 2 34.2899 2 34.2713C2 34.2526 2 34.234 2 34.2153C2 34.1966 2 34.1779 2 34.1593C2 34.1406 2 34.1219 2 34.1032C2 34.0845 2 34.0658 2 34.047C2 34.0283 2 34.0096 2 33.9908C2 33.9721 2 33.9534 2 33.9346C2 33.9158 2 33.8971 2 33.8783C2 33.8595 2 33.8408 2 33.822C2 33.8032 2 33.7844 2 33.7656C2 33.7468 2 33.728 2 33.7091C2 33.6903 2 33.6715 2 33.6526C2 33.6338 2 33.615 2 33.5961C2 33.5773 2 33.5584 2 33.5395C2 33.5207 2 33.5018 2 33.4829C2 33.464 2 33.4451 2 33.4262C2 33.4073 2 33.3884 2 33.3695C2 33.3506 2 33.3317 2 33.3128C2 33.2938 2 33.2749 2 33.256C2 33.237 2 33.2181 2 33.1991C2 33.1802 2 33.1612 2 33.1422C2 33.1233 2 33.1043 2 33.0853C2 33.0663 2 33.0473 2 33.0284C2 33.0094 2 32.9904 2 32.9714C2 32.9524 2 32.9333 2 32.9143C2 32.8953 2 32.8763 2 32.8573C2 32.8382 2 32.8192 2 32.8002C2 32.7811 2 32.7621 2 32.743C2 32.724 2 32.7049 2 32.6858C2 32.6668 2 32.6477 2 32.6286C2 32.6096 2 32.5905 2 32.5714C2 32.5523 2 32.5332 2 32.5141C2 32.495 2 32.4759 2 32.4568C2 32.4377 2 32.4186 2 32.3995C2 32.3804 2 32.3613 2 32.3421C2 32.323 2 32.3039 2 32.2848C2 32.2656 2 32.2465 2 32.2273C2 32.2082 2 32.1891 2 32.1699C2 32.1508 2 32.1316 2 32.1124C2 32.0933 2 32.0741 2 32.0549C2 32.0358 2 32.0166 2 31.9974C2 31.9783 2 31.9591 2 31.9399C2 31.9207 2 31.9015 2 31.8823C2 31.8631 2 31.844 2 31.8248C2 31.8056 2 31.7864 2 31.7672C2 31.748 2 31.7287 2 31.7095C2 31.6903 2 31.6711 2 31.6519C2 31.6327 2 31.6135 2 31.5942C2 31.575 2 31.5558 2 31.5366C2 31.5173 2 31.4981 2 31.4789C2 31.4596 2 31.4404 2 31.4212C2 31.4019 2 31.3827 2 31.3634C2 31.3442 2 31.325 2 31.3057C2 31.2865 2 31.2672 2 31.248C2 31.2287 2 31.2094 2 31.1902C2 31.1709 2 31.1517 2 31.1324C2 31.1132 2 31.0939 2 31.0746C2 31.0554 2 31.0361 2 31.0168C2 30.9976 2 30.9783 2 30.959C2 30.9398 2 30.9205 2 30.9012C2 30.8819 2 30.8627 2 30.8434C2 30.8241 2 30.8048 2 30.7856C2 30.7663 2 30.747 2 30.7277C2 30.7085 2 30.6892 2 30.6699C2 30.6506 2 30.6313 2 30.6121C2 30.5928 2 30.5735 2 30.5542C2 30.5349 2 30.5156 2 30.4964C2 30.4771 2 30.4578 2 30.4385C2 30.4192 2 30.3999 2 30.3807C2 30.3614 2 30.3421 2 30.3228C2 30.3035 2 30.2842 2 30.265C2 30.2457 2 30.2264 2 30.2071C2 30.1878 2 30.1685 2 30.1493C2 30.13 2 30.1107 2 30.0914C2 30.0721 2 30.0529 2 30.0336C2 30.0143 2 29.995 2 29.9757C2 29.9565 2 29.9372 2 29.9179C2 29.8986 2 29.8794 2 29.8601C2 29.8408 2 29.8215 2 29.8023C2 29.783 2 29.7637 2 29.7445C2 29.7252 2 29.7059 2 29.6866C2 29.6674 2 29.6481 2 29.6289C2 29.6096 2 29.5903 2 29.5711C2 29.5518 2 29.5326 2 29.5133C2 29.4941 2 29.4748 2 29.4555C2 29.4363 2 29.417 2 29.3978C2 29.3786 2 29.3593 2 29.3401C2 29.3208 2 29.3016 2 29.2824C2 29.2631 2 29.2439 2 29.2247C2 29.2054 2 29.1862 2 29.167C2 29.1477 2 29.1285 2 29.1093C2 29.0901 2 29.0709 2 29.0516C2 29.0324 2 29.0132 2 28.994C2 28.9748 2 28.9556 2 28.9364C2 28.9172 2 28.898 2 28.8788C2 28.8596 2 28.8404 2 28.8212C2 28.802 2 28.7829 2 28.7637C2 28.7445 2 28.7253 2 28.7062C2 28.687 2 28.6678 2 28.6486C2 28.6295 2 28.6103 2 28.5912C2 28.572 2 28.5529 2 28.5337C2 28.5146 2 28.4954 2 28.4763C2 28.4571 2 28.438 2 28.4189C2 28.3997 2 28.3806 2 28.3615C2 28.3424 2 28.3233 2 28.3042C2 28.285 2 28.2659 2 28.2468C2 28.2277 2 28.2086 2 28.1895C2 28.1705 2 28.1514 2 28.1323C2 28.1132 2 28.0941 2 28.0751C2 28.056 2 28.0369 2 28.0179C2 27.9988 2 27.9798 2 27.9607C2 27.9417 2 27.9226 2 27.9036C2 27.8845 2 27.8655 2 27.8465C2 27.8275 2 27.8084 2 27.7894C2 27.7704 2 27.7514 2 27.7324C2 27.7134 2 27.6944 2 27.6754C2 27.6564 2 27.6375 2 27.6185C2 27.5995 2 27.5805 2 27.5616C2 27.5426 2 27.5237 2 27.5047C2 27.4858 2 27.4668 2 27.4479C2 27.429 2 27.41 2 27.3911C2 27.3722 2 27.3533 2 27.3344C2 27.3155 2 27.2966 2 27.2777C2 27.2588 2 27.2399 2 27.221C2 27.2021 2 27.1833 2 27.1644C2 27.1455 2 27.1267 2 27.1078C2 27.089 2 27.0701 2 27.0513C2 27.0325 2 27.0137 2 26.9948C2 26.976 2 26.9572 2 26.9384C2 26.9196 2 26.9008 2 26.882C2 26.8633 2 26.8445 2 26.8257C2 26.8069 2 26.7882 2 26.7694C2 26.7507 2 26.7319 2 26.7132C2 26.6945 2 26.6758 2 26.657C2 26.6383 2 26.6196 2 26.6009C2 26.5822 2 26.5635 2 26.5449C2 26.5262 2 26.5075 2 26.4888C2 26.4702 2 26.4515 2 26.4329C2 26.4142 2 26.3956 2 26.377C2 26.3584 2 26.3397 2 26.3211C2 26.3025 2 26.2839 2 26.2654C2 26.2468 2 26.2282 2 26.2096C2 26.1911 2 26.1725 2 26.154C2 26.1354 2 26.1169 2 26.0983C2 26.0798 2 26.0613 2 26.0428C2 26.0243 2 26.0058 2 25.9873C2 25.9688 2 25.9504 2 25.9319C2 25.9134 2 25.895 2 25.8765C2 25.8581 2 25.8397 2 25.8212C2 25.8028 2 25.7844 2 25.766C2 25.7476 2 25.7292 2 25.7108C2 25.6925 2 25.6741 2 25.6557C2 25.6374 2 25.619 2 25.6007C2 25.5824 2 25.5641 2 25.5457C2 25.5274 2 25.5091 2 25.4909C2 25.4726 2 25.4543 2 25.436C2 25.4178 2 25.3995 2 25.3813C2 25.363 2 25.3448 2 25.3266C2 25.3084 2 25.2902 2 25.272C2 25.2538 2 25.2356 2 25.2174C2 25.1993 2 25.1811 2 25.163C2 25.1448 2 25.1267 2 25.1086C2 25.0905 2 25.0724 2 25.0543C2 25.0362 2 25.0181 2 25C2 24.982 2 24.9639 2 24.9459C2 24.9279 2 24.9098 2 24.8918C2 24.8738 2 24.8558 2 24.8378C2 24.8198 2 24.8018 2 24.7839C2 24.7659 2 24.748 2 24.73C2 24.7121 2 24.6942 2 24.6763C2 24.6584 2 24.6405 2 24.6226C2 24.6047 2 24.5869 2 24.569C2 24.5512 2 24.5333 2 24.5155C2 24.4977 2 24.4799 2 24.4621C2 24.4443 2 24.4265 2 24.4087C2 24.391 2 24.3732 2 24.3555C2 24.3377 2 24.32 2 24.3023C2 24.2846 2 24.2669 2 24.2492C2 24.2315 2 24.2139 2 24.1962C2 24.1786 2 24.161 2 24.1433C2 24.1257 2 24.1081 2 24.0905C2 24.0729 2 24.0554 2 24.0378C2 24.0202 2 24.0027 2 23.9852C2 23.9676 2 23.9501 2 23.9326C2 23.9151 2 23.8977 2 23.8802C2 23.8627 2 23.8453 2 23.8278C2 23.8104 2 23.793 2 23.7756C2 23.7582 2 23.7408 2 23.7234C2 23.7061 2 23.6887 2 23.6714C2 23.654 2 23.6367 2 23.6194C2 23.6021 2 23.5848 2 23.5675C2 23.5503 2 23.533 2 23.5158C2 23.4985 2 23.4813 2 23.4641C2 23.4469 2 23.4297 2 23.4125C2 23.3954 2 23.3782 2 23.3611C2 23.3439 2 23.3268 2 23.3097C2 23.2926 2 23.2755 2 23.2585C2 23.2414 2 23.2243 2 23.2073C2 23.1903 2 23.1733 2 23.1563C2 23.1393 2 23.1223 2 23.1053C2 23.0884 2 23.0714 2 23.0545C2 23.0376 2 23.0206 2 23.0038C2 22.9869 2 22.97 2 22.9531C2 22.9363 2 22.9194 2 22.9026C2 22.8858 2 22.869 2 22.8522C2 22.8354 2 22.8187 2 22.8019C2 22.7852 2 22.7685 2 22.7518C2 22.735 2 22.7184 2 22.7017C2 22.685 2 22.6684 2 22.6517C2 22.6351 2 22.6185 2 22.6019C2 22.5853 2 22.5687 2 22.5522C2 22.5356 2 22.5191 2 22.5026C2 22.486 2 22.4695 2 22.4531C2 22.4366 2 22.4201 2 22.4037C2 22.3872 2 22.3708 2 22.3544C2 22.338 2 22.3216 2 22.3053C2 22.2889 2 22.2726 2 22.2563C2 22.24 2 22.2236 2 22.2074C2 22.1911 2 22.1748 2 22.1586C2 22.1424 2 22.1261 2 22.1099C2 22.0937 2 22.0776 2 22.0614C2 22.0452 2 22.0291 2 22.013C2 21.9969 2 21.9808 2 21.9647C2 21.9486 2 21.9326 2 21.9165C2 21.9005 2 21.8845 2 21.8685C2 21.8525 2 21.8366 2 21.8206C2 21.8047 2 21.7887 2 21.7728C2 21.7569 2 21.741 2 21.7252C2 21.7093 2 21.6935 2 21.6777C2 21.6618 2 21.646 2 21.6303C2 21.6145 2 21.5987 2 21.583C2 21.5673 2 21.5516 2 21.5359C2 21.5202 2 21.5045 2 21.4889C2 21.4732 2 21.4576 2 21.442C2 21.4264 2 21.4108 2 21.3953C2 21.3797 2 21.3642 2 21.3487C2 21.3332 2 21.3177 2 21.3022C2 21.2868 2 21.2713 2 21.2559C2 21.2405 2 21.2251 2 21.2097C2 21.1944 2 21.179 2 21.1637C2 21.1484 2 21.1331 2 21.1178C2 21.1025 2 21.0873 2 21.072C2 21.0568 2 21.0416 2 21.0264C2 21.0112 2 20.9961 2 20.9809C2 20.9658 2 20.9507 2 20.9356C2 20.9205 2 20.9054 2 20.8904C2 20.8753 2 20.8603 2 20.8453C2 20.8303 2 20.8154 2 20.8004C2 20.7855 2 20.7706 2 20.7557C2 20.7408 2 20.7259 2 20.7111C2 20.6962 2 20.6814 2 20.6666C2 20.6518 2 20.637 2 20.6223C2 20.6075 2 20.5928 2 20.5781C2 20.5634 2 20.5487 2 20.5341C2 20.5194 2 20.5048 2 20.4902C2 20.4756 2 20.461 2 20.4465C2 20.4319 2 20.4174 2 20.4029C2 20.3884 2 20.3739 2 20.3595C2 20.3451 2 20.3306 2 20.3162C2 20.3018 2 20.2875 2 20.2731C2 20.2588 2 20.2445 2 20.2302C2 20.2159 2 20.2016 2 20.1874C2 20.1732 2 20.1589 2 20.1448C2 20.1306 2 20.1164 2 20.1023C2 20.0881 2 20.074 2 20.06C2 20.0459 2 20.0318 2 20.0178C2 20.0038 2 19.9898 2 19.9758C2 19.9618 2 19.9479 2 19.934C2 19.92 2 19.9061 2 19.8923C2 19.8784 2 19.8646 2 19.8508C2 19.837 2 19.8232 2 19.8094C2 19.7957 2 19.7819 2 19.7682C2 19.7545 2 19.7409 2 19.7272C2 19.7136 2 19.7 2 19.6864C2 19.6728 2 19.6592 2 19.6457C2 19.6321 2 19.6186 2 19.6052C2 19.5917 2 19.5782 2 19.5648C2 19.5514 2 19.538 2 19.5246C2 19.5113 2 19.4979 2 19.4846C2 19.4713 2 19.458 2 19.4448C2 19.4315 2 19.4183 2 19.4051C2 19.3919 2 19.3787 2 19.3656C2 19.3525 2 19.3394 2 19.3263C2 19.3132 2 19.3002 2 19.2871C2 19.2741 2 19.2611 2 19.2482C2 19.2352 2 19.2223 2 19.2094C2 19.1965 2 19.1836 2 19.1707C2 19.1579 2 19.1451 2 19.1323C2 19.1195 2 19.1068 2 19.094C2 19.0813 2 19.0686 2 19.056C2 19.0433 2 19.0306 2 19.018C2 19.0054 2 18.9929 2 18.9803C2 18.9678 2 18.9553 2 18.9428C2 18.9303 2 18.9178 2 18.9054C2 18.893 2 18.8806 2 18.8682C2 18.8559 2 18.8435 2 18.8312C2 18.8189 2 18.8067 2 18.7944C2 18.7822 2 18.77 2 18.7578C2 18.7456 2 18.7335 2 18.7214C2 18.7093 2 18.6972 2 18.6851C2 18.6731 2 18.6611 2 18.6491C2 18.6371 2 18.6251 2 18.6132C2 18.6013 2 18.5894 2 18.5775C2 18.5656 2 18.5538 2 18.542C2 18.5302 2 18.5185 2 18.5067C2 18.495 2 18.4833 2 18.4716C2 18.4599 2 18.4483 2 18.4367C2 18.4251 2 18.4135 2 18.402C2 18.3904 2 18.3789 2 18.3674C2 18.356 2 18.3445 2 18.3331C2 18.3217 2 18.3103 2 18.299C2 18.2876 2 18.2763 2 18.265C2 18.2538 2 18.2425 2 18.2313C2 18.2201 2 18.2089 2 18.1978C2 18.1866 2 18.1755 2 18.1644C2 18.1533 2 18.1423 2 18.1313C2 18.1203 2 18.1093 2 18.0983C2 18.0874 2 18.0765 2 18.0656C2 18.0547 2 18.0439 2 18.0331C2 18.0222 2 18.0115 2 18.0007C2 17.99 2 17.9793 2 17.9686C2 17.9579 2 17.9473 2 17.9367C2 17.9261 2 17.9155 2 17.905C2 17.8944 2 17.8839 2 17.8734C2 17.863 2 17.8525 2 17.8421C2 17.8317 2 17.8214 2 17.8111C2 17.8007 2 17.7904 2 17.7802C2 17.7699 2 17.7597 2 17.7495C2 17.7393 2 17.7292 2 17.719C2 17.7089 2 17.6988 2 17.6888C2 17.6787 2 17.6687 2 17.6587C2 17.6488 2 17.6388 2 17.6289C2 17.619 2 17.6091 2 17.5993C2 17.5895 2 17.5797 2 17.5699C2 17.5601 2 17.5504 2 17.5407C2 17.531 2 17.5214 2 17.5118C2 17.5021 2 17.4926 2 17.483C2 17.4735 2 17.464 2 17.4545C2 17.445 2 17.4356 2 17.4262C2 17.4168 2 17.4074 2 17.3981C2 17.3888 2 17.3795 2 17.3702C2 17.361 2 17.3518 2 17.3426C2 17.3334 2 17.3243 2 17.3152C2 17.306 2 17.297 2 17.288C2 17.2789 2 17.2699 2 17.261C2 17.252 2 17.2431 2 17.2342C2 17.2253 2 17.2165 2 17.2077C2 17.1989 2 17.1901 2 17.1814C2 17.1727 2 17.164 2 17.1553C2 17.1467 2 17.1381 2 17.1295C2 17.1209 2 17.1124 2 17.1039C2 17.0954 2 17.0869 2 17.0785C2 17.0701 2 17.0617 2 17.0533C2 17.045 2 17.0367 2 17.0284C2 17.0201 2 17.0119 2 17.0037C2 16.9955 2 16.9874 2 16.9792C2 16.9711 2 16.9631 2 16.955C2 16.947 2 16.939 2 16.931C2 16.9231 2 16.9152 2 16.9073C2 16.8994 2 16.8916 2 16.8838C2 16.876 2 16.8682 2 16.8605C2 16.8527 2 16.8451 2 16.8374C2 16.8298 2 16.8222 2 16.8146C2 16.8071 2 16.7995 2 16.7921C2 16.7846 2 16.7771 2 16.7697C2 16.7623 2 16.755 2 16.7476C2 16.7403 2 16.733 2 16.7258C2 16.7186 2 16.7114 2 16.7042C2 16.697 2 16.6899 2 16.6828C2 16.6758 2 16.6687 2 16.6617C2 16.6547 2 16.6478 2 16.6409C2 16.6339 2 16.6271 2 16.6202C2 16.6134 2 16.6066 2 16.5999C2 16.5931 2 16.5864 2 16.5797C2 16.5731 2 16.5664 2 16.5599C2 16.5533 2 16.5467 2 16.5402C2 16.5337 2 16.5273 2 16.5209C2 16.5144 2 16.5081 2 16.5017C2 16.4954 2 16.4891 2 16.4829C2 16.4766 2 16.4704 2 16.4642C2 16.4581 2 16.4519 2 16.4459C2 16.4398 2 16.4337 2 16.4277C2 16.4217 2 16.4158 2 16.4099C2 16.404 2 16.3981 2 16.3923C2 16.3864 2 16.3807 2 16.3749C2 16.3692 2 16.3635 2 16.3578C2 16.3522 2 16.3466 2 16.341C2 16.3354 2 16.3299 2 16.3244C2 16.3189 2 16.3135 2 16.3081C2 16.3027 2 16.2974 2 16.2921C2 16.2868 2 16.2815 2 16.2763C2 16.271 2 16.2659 2 16.2607C2 16.2556 2 16.2505 2 16.2455C2 16.2404 2 16.2354 2 16.2305C2 16.2255 2 16.2206 2 16.2157C2 16.2109 2 16.206 2 16.2013C2 16.1965 2 16.1917 2 16.1871C2 16.1824 2 16.1777 2 16.1731C2 16.1685 2 16.164 2 16.1594C2 16.1549 2 16.1505 2 16.146C2 16.1416 2 16.1372 2 16.1329C2 16.1286 2 16.1243 2 16.12C2 16.1158 2 16.1116 2 16.1075C2 16.1033 2 16.0992 2 16.0951C2 16.0911 2 16.0871 2 16.0831C2 16.0791 2 16.0752 2 16.0713C2 16.0674 2 16.0636 2 16.0598C2 16.056 2 16.0523 2 16.0486C2 16.0449 2 16.0413 2 16.0377C2 16.0341 2 16.0305 2 16.027C2 16.0235 2 16.02 2 16.0166C2 16.0132 2 16.0098 2 16.0065C2 16.0032 2 15.9999 2 15.9967C2 15.9934 2 15.9902 2 15.9871C2 15.984 2 15.9809 2 15.9778C2 15.9748 2 15.9718 2 15.9688C2 15.9659 2 15.963 2 15.9601C2 15.9573 2 15.9545 2 15.9517C2 15.949 2 15.9462 2 15.9436C2 15.9409 2 15.9383 2 15.9357C2 15.9332 2 15.9306 2 15.9282C2 15.9257 2 15.9233 2 15.9209C2 15.9185 2 15.9162 2 15.9139C2 15.9116 2 15.9094 2 15.9072C2 15.905 2 15.9028 2 15.9008C2 15.8987 2 15.8966 2 15.8946C2 15.8926 2 15.8907 2 15.8888C2 15.8869 2 15.8851 2 15.8833C2 15.8815 2 15.8797 2 15.878C2 15.8763 2 15.8747 2 15.873C2 15.8714 2 15.8699 2 15.8684C2 15.8669 2 15.8654 2 15.864C2 15.8626 2 15.8613 2 15.8599C2 15.8586 2 15.8574 2 15.8562C2 15.855 2 15.8538 2 15.8527C2 15.8516 2 15.8505 2 15.8495C2 15.8485 2 15.8475 2 15.8466C2 15.8457 2 15.8449 2 15.844C2 15.8432 2 15.8425 2 15.8418C2 15.8411 2 15.8404 2 15.8398C2 15.8392 2 15.8386 2 15.8381C2 15.8376 2 15.8371 2 15.8367C2 15.8363 2 15.836 2 15.8357C2 15.8354 2 15.8351 2 15.8349C2 15.8347 2 15.8345 2 15.8344C2 15.8343 2 15.8343 1 15.8343C0 15.8343 0 15.8343 0 15.8344C0 15.8345 0 15.8347 0 15.8349C0 15.8351 0 15.8354 0 15.8357C0 15.836 0 15.8363 0 15.8367C0 15.8371 0 15.8376 0 15.8381C0 15.8386 0 15.8392 0 15.8398C0 15.8404 0 15.8411 0 15.8418C0 15.8425 0 15.8432 0 15.844C0 15.8449 0 15.8457 0 15.8466C0 15.8475 0 15.8485 0 15.8495C0 15.8505 0 15.8516 0 15.8527C0 15.8538 0 15.855 0 15.8562C0 15.8574 0 15.8586 0 15.8599C0 15.8613 0 15.8626 0 15.864C0 15.8654 0 15.8669 0 15.8684C0 15.8699 0 15.8714 0 15.873C0 15.8747 0 15.8763 0 15.878C0 15.8797 0 15.8815 0 15.8833C0 15.8851 0 15.8869 0 15.8888C0 15.8907 0 15.8926 0 15.8946C0 15.8966 0 15.8987 0 15.9008C0 15.9028 0 15.905 0 15.9072C0 15.9094 0 15.9116 0 15.9139C0 15.9162 0 15.9185 0 15.9209C0 15.9233 0 15.9257 0 15.9282C0 15.9306 0 15.9332 0 15.9357C0 15.9383 0 15.9409 0 15.9436C0 15.9462 0 15.949 0 15.9517C0 15.9545 0 15.9573 0 15.9601C0 15.963 0 15.9659 0 15.9688C0 15.9718 0 15.9748 0 15.9778C0 15.9809 0 15.984 0 15.9871C0 15.9902 0 15.9934 0 15.9967C0 15.9999 0 16.0032 0 16.0065C0 16.0098 0 16.0132 0 16.0166C0 16.02 0 16.0235 0 16.027C0 16.0305 0 16.0341 0 16.0377C0 16.0413 0 16.0449 0 16.0486C0 16.0523 0 16.056 0 16.0598C0 16.0636 0 16.0674 0 16.0713C0 16.0752 0 16.0791 0 16.0831C0 16.0871 0 16.0911 0 16.0951C0 16.0992 0 16.1033 0 16.1075C0 16.1116 0 16.1158 0 16.12C0 16.1243 0 16.1286 0 16.1329C0 16.1372 0 16.1416 0 16.146C0 16.1505 0 16.1549 0 16.1594C0 16.164 0 16.1685 0 16.1731C0 16.1777 0 16.1824 0 16.1871C0 16.1917 0 16.1965 0 16.2013C0 16.206 0 16.2109 0 16.2157C0 16.2206 0 16.2255 0 16.2305C0 16.2354 0 16.2404 0 16.2455C0 16.2505 0 16.2556 0 16.2607C0 16.2659 0 16.271 0 16.2763C0 16.2815 0 16.2868 0 16.2921C0 16.2974 0 16.3027 0 16.3081C0 16.3135 0 16.3189 0 16.3244C0 16.3299 0 16.3354 0 16.341C0 16.3466 0 16.3522 0 16.3578C0 16.3635 0 16.3692 0 16.3749C0 16.3807 0 16.3864 0 16.3923C0 16.3981 0 16.404 0 16.4099C0 16.4158 0 16.4217 0 16.4277C0 16.4337 0 16.4398 0 16.4459C0 16.4519 0 16.4581 0 16.4642C0 16.4704 0 16.4766 0 16.4829C0 16.4891 0 16.4954 0 16.5017C0 16.5081 0 16.5144 0 16.5209C0 16.5273 0 16.5337 0 16.5402C0 16.5467 0 16.5533 0 16.5599C0 16.5664 0 16.5731 0 16.5797C0 16.5864 0 16.5931 0 16.5999C0 16.6066 0 16.6134 0 16.6202C0 16.6271 0 16.6339 0 16.6409C0 16.6478 0 16.6547 0 16.6617C0 16.6687 0 16.6758 0 16.6828C0 16.6899 0 16.697 0 16.7042C0 16.7114 0 16.7186 0 16.7258C0 16.733 0 16.7403 0 16.7476C0 16.755 0 16.7623 0 16.7697C0 16.7771 0 16.7846 0 16.7921C0 16.7995 0 16.8071 0 16.8146C0 16.8222 0 16.8298 0 16.8374C0 16.8451 0 16.8527 0 16.8605C0 16.8682 0 16.876 0 16.8838C0 16.8916 0 16.8994 0 16.9073C0 16.9152 0 16.9231 0 16.931C0 16.939 0 16.947 0 16.955C0 16.9631 0 16.9711 0 16.9792C0 16.9874 0 16.9955 0 17.0037C0 17.0119 0 17.0201 0 17.0284C0 17.0367 0 17.045 0 17.0533C0 17.0617 0 17.0701 0 17.0785C0 17.0869 0 17.0954 0 17.1039C0 17.1124 0 17.1209 0 17.1295C0 17.1381 0 17.1467 0 17.1553C0 17.164 0 17.1727 0 17.1814C0 17.1901 0 17.1989 0 17.2077C0 17.2165 0 17.2253 0 17.2342C0 17.2431 0 17.252 0 17.261C0 17.2699 0 17.2789 0 17.288C0 17.297 0 17.306 0 17.3152C0 17.3243 0 17.3334 0 17.3426C0 17.3518 0 17.361 0 17.3702C0 17.3795 0 17.3888 0 17.3981C0 17.4074 0 17.4168 0 17.4262C0 17.4356 0 17.445 0 17.4545C0 17.464 0 17.4735 0 17.483C0 17.4926 0 17.5021 0 17.5118C0 17.5214 0 17.531 0 17.5407C0 17.5504 0 17.5601 0 17.5699C0 17.5797 0 17.5895 0 17.5993C0 17.6091 0 17.619 0 17.6289C0 17.6388 0 17.6488 0 17.6587C0 17.6687 0 17.6787 0 17.6888C0 17.6988 0 17.7089 0 17.719C0 17.7292 0 17.7393 0 17.7495C0 17.7597 0 17.7699 0 17.7802C0 17.7904 0 17.8007 0 17.8111C0 17.8214 0 17.8317 0 17.8421C0 17.8525 0 17.863 0 17.8734C0 17.8839 0 17.8944 0 17.905C0 17.9155 0 17.9261 0 17.9367C0 17.9473 0 17.9579 0 17.9686C0 17.9793 0 17.99 0 18.0007C0 18.0115 0 18.0222 0 18.0331C0 18.0439 0 18.0547 0 18.0656C0 18.0765 0 18.0874 0 18.0983C0 18.1093 0 18.1203 0 18.1313C0 18.1423 0 18.1533 0 18.1644C0 18.1755 0 18.1866 0 18.1978C0 18.2089 0 18.2201 0 18.2313C0 18.2425 0 18.2538 0 18.265C0 18.2763 0 18.2876 0 18.299C0 18.3103 0 18.3217 0 18.3331C0 18.3445 0 18.356 0 18.3674C0 18.3789 0 18.3904 0 18.402C0 18.4135 0 18.4251 0 18.4367C0 18.4483 0 18.4599 0 18.4716C0 18.4833 0 18.495 0 18.5067C0 18.5185 0 18.5302 0 18.542C0 18.5538 0 18.5656 0 18.5775C0 18.5894 0 18.6013 0 18.6132C0 18.6251 0 18.6371 0 18.6491C0 18.6611 0 18.6731 0 18.6851C0 18.6972 0 18.7093 0 18.7214C0 18.7335 0 18.7456 0 18.7578C0 18.77 0 18.7822 0 18.7944C0 18.8067 0 18.8189 0 18.8312C0 18.8435 0 18.8559 0 18.8682C0 18.8806 0 18.893 0 18.9054C0 18.9178 0 18.9303 0 18.9428C0 18.9553 0 18.9678 0 18.9803C0 18.9929 0 19.0054 0 19.018C0 19.0306 0 19.0433 0 19.056C0 19.0686 0 19.0813 0 19.094C0 19.1068 0 19.1195 0 19.1323C0 19.1451 0 19.1579 0 19.1707C0 19.1836 0 19.1965 0 19.2094C0 19.2223 0 19.2352 0 19.2482C0 19.2611 0 19.2741 0 19.2871C0 19.3002 0 19.3132 0 19.3263C0 19.3394 0 19.3525 0 19.3656C0 19.3787 0 19.3919 0 19.4051C0 19.4183 0 19.4315 0 19.4448C0 19.458 0 19.4713 0 19.4846C0 19.4979 0 19.5113 0 19.5246C0 19.538 0 19.5514 0 19.5648C0 19.5782 0 19.5917 0 19.6052C0 19.6186 0 19.6321 0 19.6457C0 19.6592 0 19.6728 0 19.6864C0 19.7 0 19.7136 0 19.7272C0 19.7409 0 19.7545 0 19.7682C0 19.7819 0 19.7957 0 19.8094C0 19.8232 0 19.837 0 19.8508C0 19.8646 0 19.8784 0 19.8923C0 19.9061 0 19.92 0 19.934C0 19.9479 0 19.9618 0 19.9758C0 19.9898 0 20.0038 0 20.0178C0 20.0318 0 20.0459 0 20.06C0 20.074 0 20.0881 0 20.1023C0 20.1164 0 20.1306 0 20.1448C0 20.1589 0 20.1732 0 20.1874C0 20.2016 0 20.2159 0 20.2302C0 20.2445 0 20.2588 0 20.2731C0 20.2875 0 20.3018 0 20.3162C0 20.3306 0 20.3451 0 20.3595C0 20.3739 0 20.3884 0 20.4029C0 20.4174 0 20.4319 0 20.4465C0 20.461 0 20.4756 0 20.4902C0 20.5048 0 20.5194 0 20.5341C0 20.5487 0 20.5634 0 20.5781C0 20.5928 0 20.6075 0 20.6223C0 20.637 0 20.6518 0 20.6666C0 20.6814 0 20.6962 0 20.7111C0 20.7259 0 20.7408 0 20.7557C0 20.7706 0 20.7855 0 20.8004C0 20.8154 0 20.8303 0 20.8453C0 20.8603 0 20.8753 0 20.8904C0 20.9054 0 20.9205 0 20.9356C0 20.9507 0 20.9658 0 20.9809C0 20.9961 0 21.0112 0 21.0264C0 21.0416 0 21.0568 0 21.072C0 21.0873 0 21.1025 0 21.1178C0 21.1331 0 21.1484 0 21.1637C0 21.179 0 21.1944 0 21.2097C0 21.2251 0 21.2405 0 21.2559C0 21.2713 0 21.2868 0 21.3022C0 21.3177 0 21.3332 0 21.3487C0 21.3642 0 21.3797 0 21.3953C0 21.4108 0 21.4264 0 21.442C0 21.4576 0 21.4732 0 21.4889C0 21.5045 0 21.5202 0 21.5359C0 21.5516 0 21.5673 0 21.583C0 21.5987 0 21.6145 0 21.6303C0 21.646 0 21.6618 0 21.6777C0 21.6935 0 21.7093 0 21.7252C0 21.741 0 21.7569 0 21.7728C0 21.7887 0 21.8047 0 21.8206C0 21.8366 0 21.8525 0 21.8685C0 21.8845 0 21.9005 0 21.9165C0 21.9326 0 21.9486 0 21.9647C0 21.9808 0 21.9969 0 22.013C0 22.0291 0 22.0452 0 22.0614C0 22.0776 0 22.0937 0 22.1099C0 22.1261 0 22.1424 0 22.1586C0 22.1748 0 22.1911 0 22.2074C0 22.2236 0 22.24 0 22.2563C0 22.2726 0 22.2889 0 22.3053C0 22.3216 0 22.338 0 22.3544C0 22.3708 0 22.3872 0 22.4037C0 22.4201 0 22.4366 0 22.4531C0 22.4695 0 22.486 0 22.5026C0 22.5191 0 22.5356 0 22.5522C0 22.5687 0 22.5853 0 22.6019C0 22.6185 0 22.6351 0 22.6517C0 22.6684 0 22.685 0 22.7017C0 22.7184 0 22.735 0 22.7518C0 22.7685 0 22.7852 0 22.8019C0 22.8187 0 22.8354 0 22.8522C0 22.869 0 22.8858 0 22.9026C0 22.9194 0 22.9363 0 22.9531C0 22.97 0 22.9869 0 23.0038C0 23.0206 0 23.0376 0 23.0545C0 23.0714 0 23.0884 0 23.1053C0 23.1223 0 23.1393 0 23.1563C0 23.1733 0 23.1903 0 23.2073C0 23.2243 0 23.2414 0 23.2585C0 23.2755 0 23.2926 0 23.3097C0 23.3268 0 23.3439 0 23.3611C0 23.3782 0 23.3954 0 23.4125C0 23.4297 0 23.4469 0 23.4641C0 23.4813 0 23.4985 0 23.5158C0 23.533 0 23.5503 0 23.5675C0 23.5848 0 23.6021 0 23.6194C0 23.6367 0 23.654 0 23.6714C0 23.6887 0 23.7061 0 23.7234C0 23.7408 0 23.7582 0 23.7756C0 23.793 0 23.8104 0 23.8278C0 23.8453 0 23.8627 0 23.8802C0 23.8977 0 23.9151 0 23.9326C0 23.9501 0 23.9676 0 23.9852C0 24.0027 0 24.0202 0 24.0378C0 24.0554 0 24.0729 0 24.0905C0 24.1081 0 24.1257 0 24.1433C0 24.161 0 24.1786 0 24.1962C0 24.2139 0 24.2315 0 24.2492C0 24.2669 0 24.2846 0 24.3023C0 24.32 0 24.3377 0 24.3555C0 24.3732 0 24.391 0 24.4087C0 24.4265 0 24.4443 0 24.4621C0 24.4799 0 24.4977 0 24.5155C0 24.5333 0 24.5512 0 24.569C0 24.5869 0 24.6047 0 24.6226C0 24.6405 0 24.6584 0 24.6763C0 24.6942 0 24.7121 0 24.73C0 24.748 0 24.7659 0 24.7839C0 24.8018 0 24.8198 0 24.8378C0 24.8558 0 24.8738 0 24.8918C0 24.9098 0 24.9279 0 24.9459C0 24.9639 0 24.982 0 25C0 25.0181 0 25.0362 0 25.0543C0 25.0724 0 25.0905 0 25.1086C0 25.1267 0 25.1448 0 25.163C0 25.1811 0 25.1993 0 25.2174C0 25.2356 0 25.2538 0 25.272C0 25.2902 0 25.3084 0 25.3266C0 25.3448 0 25.363 0 25.3813C0 25.3995 0 25.4178 0 25.436C0 25.4543 0 25.4726 0 25.4909C0 25.5091 0 25.5274 0 25.5457C0 25.5641 0 25.5824 0 25.6007C0 25.619 0 25.6374 0 25.6557C0 25.6741 0 25.6925 0 25.7108C0 25.7292 0 25.7476 0 25.766C0 25.7844 0 25.8028 0 25.8212C0 25.8397 0 25.8581 0 25.8765C0 25.895 0 25.9134 0 25.9319C0 25.9504 0 25.9688 0 25.9873C0 26.0058 0 26.0243 0 26.0428C0 26.0613 0 26.0798 0 26.0983C0 26.1169 0 26.1354 0 26.154C0 26.1725 0 26.1911 0 26.2096C0 26.2282 0 26.2468 0 26.2654C0 26.2839 0 26.3025 0 26.3211C0 26.3397 0 26.3584 0 26.377C0 26.3956 0 26.4142 0 26.4329C0 26.4515 0 26.4702 0 26.4888C0 26.5075 0 26.5262 0 26.5449C0 26.5635 0 26.5822 0 26.6009C0 26.6196 0 26.6383 0 26.657C0 26.6758 0 26.6945 0 26.7132C0 26.7319 0 26.7507 0 26.7694C0 26.7882 0 26.8069 0 26.8257C0 26.8445 0 26.8633 0 26.882C0 26.9008 0 26.9196 0 26.9384C0 26.9572 0 26.976 0 26.9948C0 27.0137 0 27.0325 0 27.0513C0 27.0701 0 27.089 0 27.1078C0 27.1267 0 27.1455 0 27.1644C0 27.1833 0 27.2021 0 27.221C0 27.2399 0 27.2588 0 27.2777C0 27.2966 0 27.3155 0 27.3344C0 27.3533 0 27.3722 0 27.3911C0 27.41 0 27.429 0 27.4479C0 27.4668 0 27.4858 0 27.5047C0 27.5237 0 27.5426 0 27.5616C0 27.5805 0 27.5995 0 27.6185C0 27.6375 0 27.6564 0 27.6754C0 27.6944 0 27.7134 0 27.7324C0 27.7514 0 27.7704 0 27.7894C0 27.8084 0 27.8275 0 27.8465C0 27.8655 0 27.8845 0 27.9036C0 27.9226 0 27.9417 0 27.9607C0 27.9798 0 27.9988 0 28.0179C0 28.0369 0 28.056 0 28.0751C0 28.0941 0 28.1132 0 28.1323C0 28.1514 0 28.1705 0 28.1895C0 28.2086 0 28.2277 0 28.2468C0 28.2659 0 28.285 0 28.3042C0 28.3233 0 28.3424 0 28.3615C0 28.3806 0 28.3997 0 28.4189C0 28.438 0 28.4571 0 28.4763C0 28.4954 0 28.5146 0 28.5337C0 28.5529 0 28.572 0 28.5912C0 28.6103 0 28.6295 0 28.6486C0 28.6678 0 28.687 0 28.7062C0 28.7253 0 28.7445 0 28.7637C0 28.7829 0 28.802 0 28.8212C0 28.8404 0 28.8596 0 28.8788C0 28.898 0 28.9172 0 28.9364C0 28.9556 0 28.9748 0 28.994C0 29.0132 0 29.0324 0 29.0516C0 29.0709 0 29.0901 0 29.1093C0 29.1285 0 29.1477 0 29.167C0 29.1862 0 29.2054 0 29.2247C0 29.2439 0 29.2631 0 29.2824C0 29.3016 0 29.3208 0 29.3401C0 29.3593 0 29.3786 0 29.3978C0 29.417 0 29.4363 0 29.4555C0 29.4748 0 29.4941 0 29.5133C0 29.5326 0 29.5518 0 29.5711C0 29.5903 0 29.6096 0 29.6289C0 29.6481 0 29.6674 0 29.6866C0 29.7059 0 29.7252 0 29.7445C0 29.7637 0 29.783 0 29.8023C0 29.8215 0 29.8408 0 29.8601C0 29.8794 0 29.8986 0 29.9179C0 29.9372 0 29.9565 0 29.9757C0 29.995 0 30.0143 0 30.0336C0 30.0529 0 30.0721 0 30.0914C0 30.1107 0 30.13 0 30.1493C0 30.1685 0 30.1878 0 30.2071C0 30.2264 0 30.2457 0 30.265C0 30.2842 0 30.3035 0 30.3228C0 30.3421 0 30.3614 0 30.3807C0 30.3999 0 30.4192 0 30.4385C0 30.4578 0 30.4771 0 30.4964C0 30.5156 0 30.5349 0 30.5542C0 30.5735 0 30.5928 0 30.6121C0 30.6313 0 30.6506 0 30.6699C0 30.6892 0 30.7085 0 30.7277C0 30.747 0 30.7663 0 30.7856C0 30.8048 0 30.8241 0 30.8434C0 30.8627 0 30.8819 0 30.9012C0 30.9205 0 30.9398 0 30.959C0 30.9783 0 30.9976 0 31.0168C0 31.0361 0 31.0554 0 31.0746C0 31.0939 0 31.1132 0 31.1324C0 31.1517 0 31.1709 0 31.1902C0 31.2094 0 31.2287 0 31.248C0 31.2672 0 31.2865 0 31.3057C0 31.325 0 31.3442 0 31.3634C0 31.3827 0 31.4019 0 31.4212C0 31.4404 0 31.4596 0 31.4789C0 31.4981 0 31.5173 0 31.5366C0 31.5558 0 31.575 0 31.5942C0 31.6135 0 31.6327 0 31.6519C0 31.6711 0 31.6903 0 31.7095C0 31.7287 0 31.748 0 31.7672C0 31.7864 0 31.8056 0 31.8248C0 31.844 0 31.8631 0 31.8823C0 31.9015 0 31.9207 0 31.9399C0 31.9591 0 31.9783 0 31.9974C0 32.0166 0 32.0358 0 32.0549C0 32.0741 0 32.0933 0 32.1124C0 32.1316 0 32.1508 0 32.1699C0 32.1891 0 32.2082 0 32.2273C0 32.2465 0 32.2656 0 32.2848C0 32.3039 0 32.323 0 32.3421C0 32.3613 0 32.3804 0 32.3995C0 32.4186 0 32.4377 0 32.4568C0 32.4759 0 32.495 0 32.5141C0 32.5332 0 32.5523 0 32.5714C0 32.5905 0 32.6096 0 32.6286C0 32.6477 0 32.6668 0 32.6858C0 32.7049 0 32.724 0 32.743C0 32.7621 0 32.7811 0 32.8002C0 32.8192 0 32.8382 0 32.8573C0 32.8763 0 32.8953 0 32.9143C0 32.9333 0 32.9524 0 32.9714C0 32.9904 0 33.0094 0 33.0284C0 33.0473 0 33.0663 0 33.0853C0 33.1043 0 33.1233 0 33.1422C0 33.1612 0 33.1802 0 33.1991C0 33.2181 0 33.237 0 33.256C0 33.2749 0 33.2938 0 33.3128C0 33.3317 0 33.3506 0 33.3695C0 33.3884 0 33.4073 0 33.4262C0 33.4451 0 33.464 0 33.4829C0 33.5018 0 33.5207 0 33.5395C0 33.5584 0 33.5773 0 33.5961C0 33.615 0 33.6338 0 33.6526C0 33.6715 0 33.6903 0 33.7091C0 33.728 0 33.7468 0 33.7656C0 33.7844 0 33.8032 0 33.822C0 33.8408 0 33.8595 0 33.8783C0 33.8971 0 33.9158 0 33.9346C0 33.9534 0 33.9721 0 33.9908C0 34.0096 0 34.0283 0 34.047C0 34.0658 0 34.0845 0 34.1032C0 34.1219 0 34.1406 0 34.1593C0 34.1779 0 34.1966 0 34.2153C0 34.234 0 34.2526 0 34.2713C0 34.2899 0 34.3086 0 34.3272C0 34.3458 0 34.3644 0 34.3831C0 34.4017 0 34.4203 0 34.4389C0 34.4575 0 34.476 0 34.4946C0 34.5132 0 34.5317 0 34.5503C0 34.5689 0 34.5874 0 34.6059C0 34.6245 0 34.643 0 34.6615C0 34.68 0 34.6985 0 34.717C0 34.7355 0 34.754 0 34.7725C0 34.7909 0 34.8094 0 34.8278C0 34.8463 0 34.8647 0 34.8832C0 34.9016 0 34.92 0 34.9384C0 34.9568 0 34.9752 0 34.9936C0 35.012 0 35.0304 0 35.0487C0 35.0671 0 35.0854 0 35.1038C0 35.1221 0 35.1404 0 35.1588C0 35.1771 0 35.1954 0 35.2137C0 35.232 0 35.2503 0 35.2685C0 35.2868 0 35.3051 0 35.3233C0 35.3416 0 35.3598 0 35.378C0 35.3962 0 35.4145 0 35.4327C0 35.4509 0 35.469 0 35.4872C0 35.5054 0 35.5236 0 35.5417C0 35.5599 0 35.578 0 35.5961C0 35.6143 0 35.6324 0 35.6505C0 35.6686 0 35.6866 0 35.7047C0 35.7228 0 35.7409 0 35.7589C0 35.777 0 35.795 0 35.813C0 35.831 0 35.8491 0 35.8671C0 35.885 0 35.903 0 35.921C0 35.939 0 35.9569 0 35.9749C0 35.9928 0 36.0107 0 36.0287C0 36.0466 0 36.0645 0 36.0824C0 36.1003 0 36.1181 0 36.136C0 36.1539 0 36.1717 0 36.1895C0 36.2074 0 36.2252 0 36.243C0 36.2608 0 36.2786 0 36.2964C0 36.3141 0 36.3319 0 36.3497C0 36.3674 0 36.3851 0 36.4029C0 36.4206 0 36.4383 0 36.456C0 36.4737 0 36.4913 0 36.509C0 36.5266 0 36.5443 0 36.5619C0 36.5796 0 36.5972 0 36.6148C0 36.6324 0 36.65 0 36.6675C0 36.6851 0 36.7026 0 36.7202C0 36.7377 0 36.7552 0 36.7728C0 36.7903 0 36.8078 0 36.8252C0 36.8427 0 36.8602 0 36.8776C0 36.8951 0 36.9125 0 36.9299C0 36.9473 0 36.9647 0 36.9821C0 36.9995 0 37.0168 0 37.0342C0 37.0515 0 37.0689 0 37.0862C0 37.1035 0 37.1208 0 37.1381C0 37.1554 0 37.1726 0 37.1899C0 37.2071 0 37.2244 0 37.2416C0 37.2588 0 37.276 0 37.2932C0 37.3104 0 37.3275 0 37.3447C0 37.3618 0 37.379 0 37.3961C0 37.4132 0 37.4303 0 37.4474C0 37.4645 0 37.4815 0 37.4986C0 37.5156 0 37.5326 0 37.5497C0 37.5667 0 37.5837 0 37.6006C0 37.6176 0 37.6346 0 37.6515C0 37.6685 0 37.6854 0 37.7023C0 37.7192 0 37.7361 0 37.7529C0 37.7698 0 37.7867 0 37.8035C0 37.8203 0 37.8371 0 37.8539H2ZM1.98689 15.9957C2.23511 14.478 2.97105 11.8899 4.3691 9.18986C5.76656 6.49096 7.79307 3.74268 10.588 1.8245L9.45625 0.175501C6.30718 2.33675 4.08799 5.38311 2.59306 8.27025C1.09873 11.1562 0.295605 13.9456 0.0131115 15.6729L1.98689 15.9957ZM1 38.8539H10.7297V36.8539H1V38.8539Z" fill="#585858"/>
<path d="M18.9999 37.8539H19.9999V38.8539H18.9999V37.8539ZM18.9999 15.8343L19.9876 15.6775L19.9999 15.7554V15.8343H18.9999ZM9.66583 1.8165C9.21489 1.49763 9.10782 0.873586 9.42669 0.422648C9.74555 -0.0282899 10.3696 -0.135358 10.8205 0.183505L9.66583 1.8165ZM17.9999 37.8539C17.9999 37.8371 17.9999 37.8203 17.9999 37.8035C17.9999 37.7867 17.9999 37.7698 17.9999 37.7529C17.9999 37.7361 17.9999 37.7192 17.9999 37.7023C17.9999 37.6854 17.9999 37.6685 17.9999 37.6515C17.9999 37.6346 17.9999 37.6176 17.9999 37.6006C17.9999 37.5837 17.9999 37.5667 17.9999 37.5497C17.9999 37.5326 17.9999 37.5156 17.9999 37.4986C17.9999 37.4815 17.9999 37.4645 17.9999 37.4474C17.9999 37.4303 17.9999 37.4132 17.9999 37.3961C17.9999 37.379 17.9999 37.3618 17.9999 37.3447C17.9999 37.3275 17.9999 37.3104 17.9999 37.2932C17.9999 37.276 17.9999 37.2588 17.9999 37.2416C17.9999 37.2244 17.9999 37.2071 17.9999 37.1899C17.9999 37.1726 17.9999 37.1554 17.9999 37.1381C17.9999 37.1208 17.9999 37.1035 17.9999 37.0862C17.9999 37.0689 17.9999 37.0515 17.9999 37.0342C17.9999 37.0168 17.9999 36.9995 17.9999 36.9821C17.9999 36.9647 17.9999 36.9473 17.9999 36.9299C17.9999 36.9125 17.9999 36.8951 17.9999 36.8776C17.9999 36.8602 17.9999 36.8427 17.9999 36.8252C17.9999 36.8078 17.9999 36.7903 17.9999 36.7728C17.9999 36.7552 17.9999 36.7377 17.9999 36.7202C17.9999 36.7026 17.9999 36.6851 17.9999 36.6675C17.9999 36.65 17.9999 36.6324 17.9999 36.6148C17.9999 36.5972 17.9999 36.5796 17.9999 36.5619C17.9999 36.5443 17.9999 36.5266 17.9999 36.509C17.9999 36.4913 17.9999 36.4737 17.9999 36.456C17.9999 36.4383 17.9999 36.4206 17.9999 36.4029C17.9999 36.3851 17.9999 36.3674 17.9999 36.3497C17.9999 36.3319 17.9999 36.3141 17.9999 36.2964C17.9999 36.2786 17.9999 36.2608 17.9999 36.243C17.9999 36.2252 17.9999 36.2074 17.9999 36.1895C17.9999 36.1717 17.9999 36.1539 17.9999 36.136C17.9999 36.1181 17.9999 36.1003 17.9999 36.0824C17.9999 36.0645 17.9999 36.0466 17.9999 36.0287C17.9999 36.0107 17.9999 35.9928 17.9999 35.9749C17.9999 35.9569 17.9999 35.939 17.9999 35.921C17.9999 35.903 17.9999 35.885 17.9999 35.8671C17.9999 35.8491 17.9999 35.831 17.9999 35.813C17.9999 35.795 17.9999 35.777 17.9999 35.7589C17.9999 35.7409 17.9999 35.7228 17.9999 35.7047C17.9999 35.6866 17.9999 35.6686 17.9999 35.6505C17.9999 35.6324 17.9999 35.6142 17.9999 35.5961C17.9999 35.578 17.9999 35.5599 17.9999 35.5417C17.9999 35.5236 17.9999 35.5054 17.9999 35.4872C17.9999 35.469 17.9999 35.4509 17.9999 35.4327C17.9999 35.4145 17.9999 35.3962 17.9999 35.378C17.9999 35.3598 17.9999 35.3416 17.9999 35.3233C17.9999 35.3051 17.9999 35.2868 17.9999 35.2685C17.9999 35.2503 17.9999 35.232 17.9999 35.2137C17.9999 35.1954 17.9999 35.1771 17.9999 35.1588C17.9999 35.1404 17.9999 35.1221 17.9999 35.1038C17.9999 35.0854 17.9999 35.0671 17.9999 35.0487C17.9999 35.0304 17.9999 35.012 17.9999 34.9936C17.9999 34.9752 17.9999 34.9568 17.9999 34.9384C17.9999 34.92 17.9999 34.9016 17.9999 34.8832C17.9999 34.8647 17.9999 34.8463 17.9999 34.8278C17.9999 34.8094 17.9999 34.7909 17.9999 34.7725C17.9999 34.754 17.9999 34.7355 17.9999 34.717C17.9999 34.6985 17.9999 34.68 17.9999 34.6615C17.9999 34.643 17.9999 34.6245 17.9999 34.6059C17.9999 34.5874 17.9999 34.5689 17.9999 34.5503C17.9999 34.5317 17.9999 34.5132 17.9999 34.4946C17.9999 34.476 17.9999 34.4575 17.9999 34.4389C17.9999 34.4203 17.9999 34.4017 17.9999 34.3831C17.9999 34.3644 17.9999 34.3458 17.9999 34.3272C17.9999 34.3086 17.9999 34.2899 17.9999 34.2713C17.9999 34.2526 17.9999 34.234 17.9999 34.2153C17.9999 34.1966 17.9999 34.1779 17.9999 34.1593C17.9999 34.1406 17.9999 34.1219 17.9999 34.1032C17.9999 34.0845 17.9999 34.0658 17.9999 34.047C17.9999 34.0283 17.9999 34.0096 17.9999 33.9908C17.9999 33.9721 17.9999 33.9534 17.9999 33.9346C17.9999 33.9158 17.9999 33.8971 17.9999 33.8783C17.9999 33.8595 17.9999 33.8408 17.9999 33.822C17.9999 33.8032 17.9999 33.7844 17.9999 33.7656C17.9999 33.7468 17.9999 33.728 17.9999 33.7091C17.9999 33.6903 17.9999 33.6715 17.9999 33.6526C17.9999 33.6338 17.9999 33.615 17.9999 33.5961C17.9999 33.5773 17.9999 33.5584 17.9999 33.5395C17.9999 33.5207 17.9999 33.5018 17.9999 33.4829C17.9999 33.464 17.9999 33.4451 17.9999 33.4262C17.9999 33.4073 17.9999 33.3884 17.9999 33.3695C17.9999 33.3506 17.9999 33.3317 17.9999 33.3128C17.9999 33.2938 17.9999 33.2749 17.9999 33.256C17.9999 33.237 17.9999 33.2181 17.9999 33.1991C17.9999 33.1802 17.9999 33.1612 17.9999 33.1422C17.9999 33.1233 17.9999 33.1043 17.9999 33.0853C17.9999 33.0663 17.9999 33.0473 17.9999 33.0284C17.9999 33.0094 17.9999 32.9904 17.9999 32.9714C17.9999 32.9524 17.9999 32.9333 17.9999 32.9143C17.9999 32.8953 17.9999 32.8763 17.9999 32.8573C17.9999 32.8382 17.9999 32.8192 17.9999 32.8002C17.9999 32.7811 17.9999 32.7621 17.9999 32.743C17.9999 32.724 17.9999 32.7049 17.9999 32.6858C17.9999 32.6668 17.9999 32.6477 17.9999 32.6286C17.9999 32.6096 17.9999 32.5905 17.9999 32.5714C17.9999 32.5523 17.9999 32.5332 17.9999 32.5141C17.9999 32.495 17.9999 32.4759 17.9999 32.4568C17.9999 32.4377 17.9999 32.4186 17.9999 32.3995C17.9999 32.3804 17.9999 32.3613 17.9999 32.3421C17.9999 32.323 17.9999 32.3039 17.9999 32.2848C17.9999 32.2656 17.9999 32.2465 17.9999 32.2273C17.9999 32.2082 17.9999 32.1891 17.9999 32.1699C17.9999 32.1508 17.9999 32.1316 17.9999 32.1124C17.9999 32.0933 17.9999 32.0741 17.9999 32.0549C17.9999 32.0358 17.9999 32.0166 17.9999 31.9974C17.9999 31.9783 17.9999 31.9591 17.9999 31.9399C17.9999 31.9207 17.9999 31.9015 17.9999 31.8823C17.9999 31.8631 17.9999 31.844 17.9999 31.8248C17.9999 31.8056 17.9999 31.7864 17.9999 31.7672C17.9999 31.748 17.9999 31.7287 17.9999 31.7095C17.9999 31.6903 17.9999 31.6711 17.9999 31.6519C17.9999 31.6327 17.9999 31.6135 17.9999 31.5942C17.9999 31.575 17.9999 31.5558 17.9999 31.5366C17.9999 31.5173 17.9999 31.4981 17.9999 31.4789C17.9999 31.4596 17.9999 31.4404 17.9999 31.4212C17.9999 31.4019 17.9999 31.3827 17.9999 31.3634C17.9999 31.3442 17.9999 31.325 17.9999 31.3057C17.9999 31.2865 17.9999 31.2672 17.9999 31.248C17.9999 31.2287 17.9999 31.2094 17.9999 31.1902C17.9999 31.1709 17.9999 31.1517 17.9999 31.1324C17.9999 31.1132 17.9999 31.0939 17.9999 31.0746C17.9999 31.0554 17.9999 31.0361 17.9999 31.0168C17.9999 30.9976 17.9999 30.9783 17.9999 30.959C17.9999 30.9398 17.9999 30.9205 17.9999 30.9012C17.9999 30.8819 17.9999 30.8627 17.9999 30.8434C17.9999 30.8241 17.9999 30.8048 17.9999 30.7856C17.9999 30.7663 17.9999 30.747 17.9999 30.7277C17.9999 30.7085 17.9999 30.6892 17.9999 30.6699C17.9999 30.6506 17.9999 30.6313 17.9999 30.6121C17.9999 30.5928 17.9999 30.5735 17.9999 30.5542C17.9999 30.5349 17.9999 30.5156 17.9999 30.4964C17.9999 30.4771 17.9999 30.4578 17.9999 30.4385C17.9999 30.4192 17.9999 30.3999 17.9999 30.3807C17.9999 30.3614 17.9999 30.3421 17.9999 30.3228C17.9999 30.3035 17.9999 30.2842 17.9999 30.265C17.9999 30.2457 17.9999 30.2264 17.9999 30.2071C17.9999 30.1878 17.9999 30.1685 17.9999 30.1493C17.9999 30.13 17.9999 30.1107 17.9999 30.0914C17.9999 30.0721 17.9999 30.0529 17.9999 30.0336C17.9999 30.0143 17.9999 29.995 17.9999 29.9757C17.9999 29.9565 17.9999 29.9372 17.9999 29.9179C17.9999 29.8986 17.9999 29.8794 17.9999 29.8601C17.9999 29.8408 17.9999 29.8215 17.9999 29.8023C17.9999 29.783 17.9999 29.7637 17.9999 29.7444C17.9999 29.7252 17.9999 29.7059 17.9999 29.6866C17.9999 29.6674 17.9999 29.6481 17.9999 29.6289C17.9999 29.6096 17.9999 29.5903 17.9999 29.5711C17.9999 29.5518 17.9999 29.5326 17.9999 29.5133C17.9999 29.4941 17.9999 29.4748 17.9999 29.4555C17.9999 29.4363 17.9999 29.417 17.9999 29.3978C17.9999 29.3786 17.9999 29.3593 17.9999 29.3401C17.9999 29.3208 17.9999 29.3016 17.9999 29.2824C17.9999 29.2631 17.9999 29.2439 17.9999 29.2247C17.9999 29.2054 17.9999 29.1862 17.9999 29.167C17.9999 29.1477 17.9999 29.1285 17.9999 29.1093C17.9999 29.0901 17.9999 29.0709 17.9999 29.0516C17.9999 29.0324 17.9999 29.0132 17.9999 28.994C17.9999 28.9748 17.9999 28.9556 17.9999 28.9364C17.9999 28.9172 17.9999 28.898 17.9999 28.8788C17.9999 28.8596 17.9999 28.8404 17.9999 28.8212C17.9999 28.802 17.9999 28.7829 17.9999 28.7637C17.9999 28.7445 17.9999 28.7253 17.9999 28.7062C17.9999 28.687 17.9999 28.6678 17.9999 28.6486C17.9999 28.6295 17.9999 28.6103 17.9999 28.5912C17.9999 28.572 17.9999 28.5529 17.9999 28.5337C17.9999 28.5146 17.9999 28.4954 17.9999 28.4763C17.9999 28.4571 17.9999 28.438 17.9999 28.4189C17.9999 28.3997 17.9999 28.3806 17.9999 28.3615C17.9999 28.3424 17.9999 28.3233 17.9999 28.3042C17.9999 28.285 17.9999 28.2659 17.9999 28.2468C17.9999 28.2277 17.9999 28.2086 17.9999 28.1895C17.9999 28.1705 17.9999 28.1514 17.9999 28.1323C17.9999 28.1132 17.9999 28.0941 17.9999 28.0751C17.9999 28.056 17.9999 28.0369 17.9999 28.0179C17.9999 27.9988 17.9999 27.9798 17.9999 27.9607C17.9999 27.9417 17.9999 27.9226 17.9999 27.9036C17.9999 27.8845 17.9999 27.8655 17.9999 27.8465C17.9999 27.8275 17.9999 27.8084 17.9999 27.7894C17.9999 27.7704 17.9999 27.7514 17.9999 27.7324C17.9999 27.7134 17.9999 27.6944 17.9999 27.6754C17.9999 27.6564 17.9999 27.6375 17.9999 27.6185C17.9999 27.5995 17.9999 27.5805 17.9999 27.5616C17.9999 27.5426 17.9999 27.5237 17.9999 27.5047C17.9999 27.4858 17.9999 27.4668 17.9999 27.4479C17.9999 27.429 17.9999 27.41 17.9999 27.3911C17.9999 27.3722 17.9999 27.3533 17.9999 27.3344C17.9999 27.3155 17.9999 27.2966 17.9999 27.2777C17.9999 27.2588 17.9999 27.2399 17.9999 27.221C17.9999 27.2021 17.9999 27.1833 17.9999 27.1644C17.9999 27.1455 17.9999 27.1267 17.9999 27.1078C17.9999 27.089 17.9999 27.0701 17.9999 27.0513C17.9999 27.0325 17.9999 27.0137 17.9999 26.9948C17.9999 26.976 17.9999 26.9572 17.9999 26.9384C17.9999 26.9196 17.9999 26.9008 17.9999 26.882C17.9999 26.8633 17.9999 26.8445 17.9999 26.8257C17.9999 26.8069 17.9999 26.7882 17.9999 26.7694C17.9999 26.7507 17.9999 26.7319 17.9999 26.7132C17.9999 26.6945 17.9999 26.6758 17.9999 26.657C17.9999 26.6383 17.9999 26.6196 17.9999 26.6009C17.9999 26.5822 17.9999 26.5635 17.9999 26.5449C17.9999 26.5262 17.9999 26.5075 17.9999 26.4888C17.9999 26.4702 17.9999 26.4515 17.9999 26.4329C17.9999 26.4142 17.9999 26.3956 17.9999 26.377C17.9999 26.3584 17.9999 26.3397 17.9999 26.3211C17.9999 26.3025 17.9999 26.2839 17.9999 26.2654C17.9999 26.2468 17.9999 26.2282 17.9999 26.2096C17.9999 26.1911 17.9999 26.1725 17.9999 26.154C17.9999 26.1354 17.9999 26.1169 17.9999 26.0983C17.9999 26.0798 17.9999 26.0613 17.9999 26.0428C17.9999 26.0243 17.9999 26.0058 17.9999 25.9873C17.9999 25.9688 17.9999 25.9504 17.9999 25.9319C17.9999 25.9134 17.9999 25.895 17.9999 25.8765C17.9999 25.8581 17.9999 25.8397 17.9999 25.8212C17.9999 25.8028 17.9999 25.7844 17.9999 25.766C17.9999 25.7476 17.9999 25.7292 17.9999 25.7108C17.9999 25.6925 17.9999 25.6741 17.9999 25.6557C17.9999 25.6374 17.9999 25.619 17.9999 25.6007C17.9999 25.5824 17.9999 25.5641 17.9999 25.5457C17.9999 25.5274 17.9999 25.5091 17.9999 25.4909C17.9999 25.4726 17.9999 25.4543 17.9999 25.436C17.9999 25.4178 17.9999 25.3995 17.9999 25.3813C17.9999 25.363 17.9999 25.3448 17.9999 25.3266C17.9999 25.3084 17.9999 25.2902 17.9999 25.272C17.9999 25.2538 17.9999 25.2356 17.9999 25.2174C17.9999 25.1993 17.9999 25.1811 17.9999 25.163C17.9999 25.1448 17.9999 25.1267 17.9999 25.1086C17.9999 25.0905 17.9999 25.0724 17.9999 25.0543C17.9999 25.0362 17.9999 25.0181 17.9999 25C17.9999 24.982 17.9999 24.9639 17.9999 24.9459C17.9999 24.9279 17.9999 24.9098 17.9999 24.8918C17.9999 24.8738 17.9999 24.8558 17.9999 24.8378C17.9999 24.8198 17.9999 24.8018 17.9999 24.7839C17.9999 24.7659 17.9999 24.748 17.9999 24.73C17.9999 24.7121 17.9999 24.6942 17.9999 24.6763C17.9999 24.6584 17.9999 24.6405 17.9999 24.6226C17.9999 24.6047 17.9999 24.5869 17.9999 24.569C17.9999 24.5512 17.9999 24.5333 17.9999 24.5155C17.9999 24.4977 17.9999 24.4799 17.9999 24.4621C17.9999 24.4443 17.9999 24.4265 17.9999 24.4087C17.9999 24.391 17.9999 24.3732 17.9999 24.3555C17.9999 24.3377 17.9999 24.32 17.9999 24.3023C17.9999 24.2846 17.9999 24.2669 17.9999 24.2492C17.9999 24.2315 17.9999 24.2139 17.9999 24.1962C17.9999 24.1786 17.9999 24.161 17.9999 24.1433C17.9999 24.1257 17.9999 24.1081 17.9999 24.0905C17.9999 24.0729 17.9999 24.0554 17.9999 24.0378C17.9999 24.0202 17.9999 24.0027 17.9999 23.9852C17.9999 23.9676 17.9999 23.9501 17.9999 23.9326C17.9999 23.9151 17.9999 23.8977 17.9999 23.8802C17.9999 23.8627 17.9999 23.8453 17.9999 23.8278C17.9999 23.8104 17.9999 23.793 17.9999 23.7756C17.9999 23.7582 17.9999 23.7408 17.9999 23.7234C17.9999 23.7061 17.9999 23.6887 17.9999 23.6714C17.9999 23.654 17.9999 23.6367 17.9999 23.6194C17.9999 23.6021 17.9999 23.5848 17.9999 23.5675C17.9999 23.5503 17.9999 23.533 17.9999 23.5158C17.9999 23.4985 17.9999 23.4813 17.9999 23.4641C17.9999 23.4469 17.9999 23.4297 17.9999 23.4125C17.9999 23.3954 17.9999 23.3782 17.9999 23.3611C17.9999 23.3439 17.9999 23.3268 17.9999 23.3097C17.9999 23.2926 17.9999 23.2755 17.9999 23.2585C17.9999 23.2414 17.9999 23.2243 17.9999 23.2073C17.9999 23.1903 17.9999 23.1733 17.9999 23.1563C17.9999 23.1393 17.9999 23.1223 17.9999 23.1053C17.9999 23.0884 17.9999 23.0714 17.9999 23.0545C17.9999 23.0376 17.9999 23.0206 17.9999 23.0038C17.9999 22.9869 17.9999 22.97 17.9999 22.9531C17.9999 22.9363 17.9999 22.9194 17.9999 22.9026C17.9999 22.8858 17.9999 22.869 17.9999 22.8522C17.9999 22.8354 17.9999 22.8187 17.9999 22.8019C17.9999 22.7852 17.9999 22.7685 17.9999 22.7518C17.9999 22.735 17.9999 22.7184 17.9999 22.7017C17.9999 22.685 17.9999 22.6684 17.9999 22.6517C17.9999 22.6351 17.9999 22.6185 17.9999 22.6019C17.9999 22.5853 17.9999 22.5687 17.9999 22.5522C17.9999 22.5356 17.9999 22.5191 17.9999 22.5026C17.9999 22.486 17.9999 22.4695 17.9999 22.4531C17.9999 22.4366 17.9999 22.4201 17.9999 22.4037C17.9999 22.3872 17.9999 22.3708 17.9999 22.3544C17.9999 22.338 17.9999 22.3216 17.9999 22.3053C17.9999 22.2889 17.9999 22.2726 17.9999 22.2563C17.9999 22.24 17.9999 22.2236 17.9999 22.2074C17.9999 22.1911 17.9999 22.1748 17.9999 22.1586C17.9999 22.1424 17.9999 22.1261 17.9999 22.1099C17.9999 22.0937 17.9999 22.0776 17.9999 22.0614C17.9999 22.0452 17.9999 22.0291 17.9999 22.013C17.9999 21.9969 17.9999 21.9808 17.9999 21.9647C17.9999 21.9486 17.9999 21.9326 17.9999 21.9165C17.9999 21.9005 17.9999 21.8845 17.9999 21.8685C17.9999 21.8525 17.9999 21.8366 17.9999 21.8206C17.9999 21.8047 17.9999 21.7887 17.9999 21.7728C17.9999 21.7569 17.9999 21.741 17.9999 21.7252C17.9999 21.7093 17.9999 21.6935 17.9999 21.6777C17.9999 21.6618 17.9999 21.646 17.9999 21.6303C17.9999 21.6145 17.9999 21.5987 17.9999 21.583C17.9999 21.5673 17.9999 21.5516 17.9999 21.5359C17.9999 21.5202 17.9999 21.5045 17.9999 21.4889C17.9999 21.4732 17.9999 21.4576 17.9999 21.442C17.9999 21.4264 17.9999 21.4108 17.9999 21.3953C17.9999 21.3797 17.9999 21.3642 17.9999 21.3487C17.9999 21.3332 17.9999 21.3177 17.9999 21.3022C17.9999 21.2868 17.9999 21.2713 17.9999 21.2559C17.9999 21.2405 17.9999 21.2251 17.9999 21.2097C17.9999 21.1944 17.9999 21.179 17.9999 21.1637C17.9999 21.1484 17.9999 21.1331 17.9999 21.1178C17.9999 21.1025 17.9999 21.0873 17.9999 21.072C17.9999 21.0568 17.9999 21.0416 17.9999 21.0264C17.9999 21.0112 17.9999 20.9961 17.9999 20.9809C17.9999 20.9658 17.9999 20.9507 17.9999 20.9356C17.9999 20.9205 17.9999 20.9054 17.9999 20.8904C17.9999 20.8753 17.9999 20.8603 17.9999 20.8453C17.9999 20.8303 17.9999 20.8154 17.9999 20.8004C17.9999 20.7855 17.9999 20.7706 17.9999 20.7557C17.9999 20.7408 17.9999 20.7259 17.9999 20.7111C17.9999 20.6962 17.9999 20.6814 17.9999 20.6666C17.9999 20.6518 17.9999 20.637 17.9999 20.6223C17.9999 20.6075 17.9999 20.5928 17.9999 20.5781C17.9999 20.5634 17.9999 20.5487 17.9999 20.5341C17.9999 20.5194 17.9999 20.5048 17.9999 20.4902C17.9999 20.4756 17.9999 20.461 17.9999 20.4465C17.9999 20.4319 17.9999 20.4174 17.9999 20.4029C17.9999 20.3884 17.9999 20.3739 17.9999 20.3595C17.9999 20.3451 17.9999 20.3306 17.9999 20.3162C17.9999 20.3018 17.9999 20.2875 17.9999 20.2731C17.9999 20.2588 17.9999 20.2445 17.9999 20.2302C17.9999 20.2159 17.9999 20.2016 17.9999 20.1874C17.9999 20.1732 17.9999 20.1589 17.9999 20.1448C17.9999 20.1306 17.9999 20.1164 17.9999 20.1023C17.9999 20.0881 17.9999 20.074 17.9999 20.06C17.9999 20.0459 17.9999 20.0318 17.9999 20.0178C17.9999 20.0038 17.9999 19.9898 17.9999 19.9758C17.9999 19.9618 17.9999 19.9479 17.9999 19.934C17.9999 19.92 17.9999 19.9061 17.9999 19.8923C17.9999 19.8784 17.9999 19.8646 17.9999 19.8508C17.9999 19.837 17.9999 19.8232 17.9999 19.8094C17.9999 19.7957 17.9999 19.7819 17.9999 19.7682C17.9999 19.7545 17.9999 19.7409 17.9999 19.7272C17.9999 19.7136 17.9999 19.7 17.9999 19.6864C17.9999 19.6728 17.9999 19.6592 17.9999 19.6457C17.9999 19.6321 17.9999 19.6186 17.9999 19.6052C17.9999 19.5917 17.9999 19.5782 17.9999 19.5648C17.9999 19.5514 17.9999 19.538 17.9999 19.5246C17.9999 19.5113 17.9999 19.4979 17.9999 19.4846C17.9999 19.4713 17.9999 19.458 17.9999 19.4448C17.9999 19.4315 17.9999 19.4183 17.9999 19.4051C17.9999 19.3919 17.9999 19.3787 17.9999 19.3656C17.9999 19.3525 17.9999 19.3394 17.9999 19.3263C17.9999 19.3132 17.9999 19.3002 17.9999 19.2871C17.9999 19.2741 17.9999 19.2611 17.9999 19.2482C17.9999 19.2352 17.9999 19.2223 17.9999 19.2094C17.9999 19.1965 17.9999 19.1836 17.9999 19.1707C17.9999 19.1579 17.9999 19.1451 17.9999 19.1323C17.9999 19.1195 17.9999 19.1068 17.9999 19.094C17.9999 19.0813 17.9999 19.0686 17.9999 19.056C17.9999 19.0433 17.9999 19.0306 17.9999 19.018C17.9999 19.0054 17.9999 18.9929 17.9999 18.9803C17.9999 18.9678 17.9999 18.9553 17.9999 18.9428C17.9999 18.9303 17.9999 18.9178 17.9999 18.9054C17.9999 18.893 17.9999 18.8806 17.9999 18.8682C17.9999 18.8559 17.9999 18.8435 17.9999 18.8312C17.9999 18.8189 17.9999 18.8067 17.9999 18.7944C17.9999 18.7822 17.9999 18.77 17.9999 18.7578C17.9999 18.7456 17.9999 18.7335 17.9999 18.7214C17.9999 18.7093 17.9999 18.6972 17.9999 18.6851C17.9999 18.6731 17.9999 18.6611 17.9999 18.6491C17.9999 18.6371 17.9999 18.6251 17.9999 18.6132C17.9999 18.6013 17.9999 18.5894 17.9999 18.5775C17.9999 18.5656 17.9999 18.5538 17.9999 18.542C17.9999 18.5302 17.9999 18.5185 17.9999 18.5067C17.9999 18.495 17.9999 18.4833 17.9999 18.4716C17.9999 18.4599 17.9999 18.4483 17.9999 18.4367C17.9999 18.4251 17.9999 18.4135 17.9999 18.402C17.9999 18.3904 17.9999 18.3789 17.9999 18.3674C17.9999 18.356 17.9999 18.3445 17.9999 18.3331C17.9999 18.3217 17.9999 18.3103 17.9999 18.299C17.9999 18.2876 17.9999 18.2763 17.9999 18.265C17.9999 18.2538 17.9999 18.2425 17.9999 18.2313C17.9999 18.2201 17.9999 18.2089 17.9999 18.1978C17.9999 18.1866 17.9999 18.1755 17.9999 18.1644C17.9999 18.1533 17.9999 18.1423 17.9999 18.1313C17.9999 18.1203 17.9999 18.1093 17.9999 18.0983C17.9999 18.0874 17.9999 18.0765 17.9999 18.0656C17.9999 18.0547 17.9999 18.0439 17.9999 18.0331C17.9999 18.0222 17.9999 18.0115 17.9999 18.0007C17.9999 17.99 17.9999 17.9793 17.9999 17.9686C17.9999 17.9579 17.9999 17.9473 17.9999 17.9367C17.9999 17.9261 17.9999 17.9155 17.9999 17.905C17.9999 17.8944 17.9999 17.8839 17.9999 17.8734C17.9999 17.863 17.9999 17.8525 17.9999 17.8421C17.9999 17.8317 17.9999 17.8214 17.9999 17.8111C17.9999 17.8007 17.9999 17.7904 17.9999 17.7802C17.9999 17.7699 17.9999 17.7597 17.9999 17.7495C17.9999 17.7393 17.9999 17.7292 17.9999 17.719C17.9999 17.7089 17.9999 17.6988 17.9999 17.6888C17.9999 17.6787 17.9999 17.6687 17.9999 17.6587C17.9999 17.6488 17.9999 17.6388 17.9999 17.6289C17.9999 17.619 17.9999 17.6091 17.9999 17.5993C17.9999 17.5895 17.9999 17.5797 17.9999 17.5699C17.9999 17.5601 17.9999 17.5504 17.9999 17.5407C17.9999 17.531 17.9999 17.5214 17.9999 17.5118C17.9999 17.5021 17.9999 17.4926 17.9999 17.483C17.9999 17.4735 17.9999 17.464 17.9999 17.4545C17.9999 17.445 17.9999 17.4356 17.9999 17.4262C17.9999 17.4168 17.9999 17.4074 17.9999 17.3981C17.9999 17.3888 17.9999 17.3795 17.9999 17.3702C17.9999 17.361 17.9999 17.3518 17.9999 17.3426C17.9999 17.3334 17.9999 17.3243 17.9999 17.3152C17.9999 17.306 17.9999 17.297 17.9999 17.288C17.9999 17.2789 17.9999 17.2699 17.9999 17.261C17.9999 17.252 17.9999 17.2431 17.9999 17.2342C17.9999 17.2253 17.9999 17.2165 17.9999 17.2077C17.9999 17.1989 17.9999 17.1901 17.9999 17.1814C17.9999 17.1727 17.9999 17.164 17.9999 17.1553C17.9999 17.1467 17.9999 17.1381 17.9999 17.1295C17.9999 17.1209 17.9999 17.1124 17.9999 17.1039C17.9999 17.0954 17.9999 17.0869 17.9999 17.0785C17.9999 17.0701 17.9999 17.0617 17.9999 17.0533C17.9999 17.045 17.9999 17.0367 17.9999 17.0284C17.9999 17.0201 17.9999 17.0119 17.9999 17.0037C17.9999 16.9955 17.9999 16.9874 17.9999 16.9792C17.9999 16.9711 17.9999 16.9631 17.9999 16.955C17.9999 16.947 17.9999 16.939 17.9999 16.931C17.9999 16.9231 17.9999 16.9152 17.9999 16.9073C17.9999 16.8994 17.9999 16.8916 17.9999 16.8838C17.9999 16.876 17.9999 16.8682 17.9999 16.8605C17.9999 16.8527 17.9999 16.8451 17.9999 16.8374C17.9999 16.8298 17.9999 16.8222 17.9999 16.8146C17.9999 16.8071 17.9999 16.7995 17.9999 16.7921C17.9999 16.7846 17.9999 16.7771 17.9999 16.7697C17.9999 16.7623 17.9999 16.755 17.9999 16.7476C17.9999 16.7403 17.9999 16.733 17.9999 16.7258C17.9999 16.7186 17.9999 16.7114 17.9999 16.7042C17.9999 16.697 17.9999 16.6899 17.9999 16.6828C17.9999 16.6758 17.9999 16.6687 17.9999 16.6617C17.9999 16.6547 17.9999 16.6478 17.9999 16.6409C17.9999 16.6339 17.9999 16.6271 17.9999 16.6202C17.9999 16.6134 17.9999 16.6066 17.9999 16.5999C17.9999 16.5931 17.9999 16.5864 17.9999 16.5797C17.9999 16.5731 17.9999 16.5664 17.9999 16.5599C17.9999 16.5533 17.9999 16.5467 17.9999 16.5402C17.9999 16.5337 17.9999 16.5273 17.9999 16.5209C17.9999 16.5144 17.9999 16.5081 17.9999 16.5017C17.9999 16.4954 17.9999 16.4891 17.9999 16.4829C17.9999 16.4766 17.9999 16.4704 17.9999 16.4642C17.9999 16.4581 17.9999 16.4519 17.9999 16.4459C17.9999 16.4398 17.9999 16.4337 17.9999 16.4277C17.9999 16.4217 17.9999 16.4158 17.9999 16.4099C17.9999 16.404 17.9999 16.3981 17.9999 16.3923C17.9999 16.3864 17.9999 16.3807 17.9999 16.3749C17.9999 16.3692 17.9999 16.3635 17.9999 16.3578C17.9999 16.3522 17.9999 16.3466 17.9999 16.341C17.9999 16.3354 17.9999 16.3299 17.9999 16.3244C17.9999 16.3189 17.9999 16.3135 17.9999 16.3081C17.9999 16.3027 17.9999 16.2974 17.9999 16.2921C17.9999 16.2868 17.9999 16.2815 17.9999 16.2763C17.9999 16.271 17.9999 16.2659 17.9999 16.2607C17.9999 16.2556 17.9999 16.2505 17.9999 16.2455C17.9999 16.2404 17.9999 16.2354 17.9999 16.2305C17.9999 16.2255 17.9999 16.2206 17.9999 16.2157C17.9999 16.2109 17.9999 16.206 17.9999 16.2013C17.9999 16.1965 17.9999 16.1917 17.9999 16.1871C17.9999 16.1824 17.9999 16.1777 17.9999 16.1731C17.9999 16.1685 17.9999 16.164 17.9999 16.1594C17.9999 16.1549 17.9999 16.1505 17.9999 16.146C17.9999 16.1416 17.9999 16.1372 17.9999 16.1329C17.9999 16.1286 17.9999 16.1243 17.9999 16.12C17.9999 16.1158 17.9999 16.1116 17.9999 16.1075C17.9999 16.1033 17.9999 16.0992 17.9999 16.0951C17.9999 16.0911 17.9999 16.0871 17.9999 16.0831C17.9999 16.0791 17.9999 16.0752 17.9999 16.0713C17.9999 16.0674 17.9999 16.0636 17.9999 16.0598C17.9999 16.056 17.9999 16.0523 17.9999 16.0486C17.9999 16.0449 17.9999 16.0413 17.9999 16.0377C17.9999 16.0341 17.9999 16.0305 17.9999 16.027C17.9999 16.0235 17.9999 16.02 17.9999 16.0166C17.9999 16.0132 17.9999 16.0098 17.9999 16.0065C17.9999 16.0032 17.9999 15.9999 17.9999 15.9967C17.9999 15.9934 17.9999 15.9902 17.9999 15.9871C17.9999 15.984 17.9999 15.9809 17.9999 15.9778C17.9999 15.9748 17.9999 15.9718 17.9999 15.9688C17.9999 15.9659 17.9999 15.963 17.9999 15.9601C17.9999 15.9573 17.9999 15.9545 17.9999 15.9517C17.9999 15.949 17.9999 15.9462 17.9999 15.9436C17.9999 15.9409 17.9999 15.9383 17.9999 15.9357C17.9999 15.9332 17.9999 15.9306 17.9999 15.9282C17.9999 15.9257 17.9999 15.9233 17.9999 15.9209C17.9999 15.9185 17.9999 15.9162 17.9999 15.9139C17.9999 15.9116 17.9999 15.9094 17.9999 15.9072C17.9999 15.905 17.9999 15.9028 17.9999 15.9008C17.9999 15.8987 17.9999 15.8966 17.9999 15.8946C17.9999 15.8926 17.9999 15.8907 17.9999 15.8888C17.9999 15.8869 17.9999 15.8851 17.9999 15.8833C17.9999 15.8815 17.9999 15.8797 17.9999 15.878C17.9999 15.8763 17.9999 15.8747 17.9999 15.873C17.9999 15.8714 17.9999 15.8699 17.9999 15.8684C17.9999 15.8669 17.9999 15.8654 17.9999 15.864C17.9999 15.8626 17.9999 15.8613 17.9999 15.8599C17.9999 15.8586 17.9999 15.8574 17.9999 15.8562C17.9999 15.855 17.9999 15.8538 17.9999 15.8527C17.9999 15.8516 17.9999 15.8505 17.9999 15.8495C17.9999 15.8485 17.9999 15.8475 17.9999 15.8466C17.9999 15.8457 17.9999 15.8449 17.9999 15.844C17.9999 15.8432 17.9999 15.8425 17.9999 15.8418C17.9999 15.8411 17.9999 15.8404 17.9999 15.8398C17.9999 15.8392 17.9999 15.8386 17.9999 15.8381C17.9999 15.8376 17.9999 15.8371 17.9999 15.8367C17.9999 15.8363 17.9999 15.836 17.9999 15.8357C17.9999 15.8354 17.9999 15.8351 17.9999 15.8349C17.9999 15.8347 17.9999 15.8345 17.9999 15.8344C17.9999 15.8343 17.9999 15.8343 18.9999 15.8343C19.9999 15.8343 19.9999 15.8343 19.9999 15.8344C19.9999 15.8345 19.9999 15.8347 19.9999 15.8349C19.9999 15.8351 19.9999 15.8354 19.9999 15.8357C19.9999 15.836 19.9999 15.8363 19.9999 15.8367C19.9999 15.8371 19.9999 15.8376 19.9999 15.8381C19.9999 15.8386 19.9999 15.8392 19.9999 15.8398C19.9999 15.8404 19.9999 15.8411 19.9999 15.8418C19.9999 15.8425 19.9999 15.8432 19.9999 15.844C19.9999 15.8449 19.9999 15.8457 19.9999 15.8466C19.9999 15.8475 19.9999 15.8485 19.9999 15.8495C19.9999 15.8505 19.9999 15.8516 19.9999 15.8527C19.9999 15.8538 19.9999 15.855 19.9999 15.8562C19.9999 15.8574 19.9999 15.8586 19.9999 15.8599C19.9999 15.8613 19.9999 15.8626 19.9999 15.864C19.9999 15.8654 19.9999 15.8669 19.9999 15.8684C19.9999 15.8699 19.9999 15.8714 19.9999 15.873C19.9999 15.8747 19.9999 15.8763 19.9999 15.878C19.9999 15.8797 19.9999 15.8815 19.9999 15.8833C19.9999 15.8851 19.9999 15.8869 19.9999 15.8888C19.9999 15.8907 19.9999 15.8926 19.9999 15.8946C19.9999 15.8966 19.9999 15.8987 19.9999 15.9008C19.9999 15.9028 19.9999 15.905 19.9999 15.9072C19.9999 15.9094 19.9999 15.9116 19.9999 15.9139C19.9999 15.9162 19.9999 15.9185 19.9999 15.9209C19.9999 15.9233 19.9999 15.9257 19.9999 15.9282C19.9999 15.9306 19.9999 15.9332 19.9999 15.9357C19.9999 15.9383 19.9999 15.9409 19.9999 15.9436C19.9999 15.9462 19.9999 15.949 19.9999 15.9517C19.9999 15.9545 19.9999 15.9573 19.9999 15.9601C19.9999 15.963 19.9999 15.9659 19.9999 15.9688C19.9999 15.9718 19.9999 15.9748 19.9999 15.9778C19.9999 15.9809 19.9999 15.984 19.9999 15.9871C19.9999 15.9902 19.9999 15.9934 19.9999 15.9967C19.9999 15.9999 19.9999 16.0032 19.9999 16.0065C19.9999 16.0098 19.9999 16.0132 19.9999 16.0166C19.9999 16.02 19.9999 16.0235 19.9999 16.027C19.9999 16.0305 19.9999 16.0341 19.9999 16.0377C19.9999 16.0413 19.9999 16.0449 19.9999 16.0486C19.9999 16.0523 19.9999 16.056 19.9999 16.0598C19.9999 16.0636 19.9999 16.0674 19.9999 16.0713C19.9999 16.0752 19.9999 16.0791 19.9999 16.0831C19.9999 16.0871 19.9999 16.0911 19.9999 16.0951C19.9999 16.0992 19.9999 16.1033 19.9999 16.1075C19.9999 16.1116 19.9999 16.1158 19.9999 16.12C19.9999 16.1243 19.9999 16.1286 19.9999 16.1329C19.9999 16.1372 19.9999 16.1416 19.9999 16.146C19.9999 16.1505 19.9999 16.1549 19.9999 16.1594C19.9999 16.164 19.9999 16.1685 19.9999 16.1731C19.9999 16.1777 19.9999 16.1824 19.9999 16.1871C19.9999 16.1917 19.9999 16.1965 19.9999 16.2013C19.9999 16.206 19.9999 16.2109 19.9999 16.2157C19.9999 16.2206 19.9999 16.2255 19.9999 16.2305C19.9999 16.2354 19.9999 16.2404 19.9999 16.2455C19.9999 16.2505 19.9999 16.2556 19.9999 16.2607C19.9999 16.2659 19.9999 16.271 19.9999 16.2763C19.9999 16.2815 19.9999 16.2868 19.9999 16.2921C19.9999 16.2974 19.9999 16.3027 19.9999 16.3081C19.9999 16.3135 19.9999 16.3189 19.9999 16.3244C19.9999 16.3299 19.9999 16.3354 19.9999 16.341C19.9999 16.3466 19.9999 16.3522 19.9999 16.3578C19.9999 16.3635 19.9999 16.3692 19.9999 16.3749C19.9999 16.3807 19.9999 16.3864 19.9999 16.3923C19.9999 16.3981 19.9999 16.404 19.9999 16.4099C19.9999 16.4158 19.9999 16.4217 19.9999 16.4277C19.9999 16.4337 19.9999 16.4398 19.9999 16.4459C19.9999 16.4519 19.9999 16.4581 19.9999 16.4642C19.9999 16.4704 19.9999 16.4766 19.9999 16.4829C19.9999 16.4891 19.9999 16.4954 19.9999 16.5017C19.9999 16.5081 19.9999 16.5144 19.9999 16.5209C19.9999 16.5273 19.9999 16.5337 19.9999 16.5402C19.9999 16.5467 19.9999 16.5533 19.9999 16.5599C19.9999 16.5664 19.9999 16.5731 19.9999 16.5797C19.9999 16.5864 19.9999 16.5931 19.9999 16.5999C19.9999 16.6066 19.9999 16.6134 19.9999 16.6202C19.9999 16.6271 19.9999 16.6339 19.9999 16.6409C19.9999 16.6478 19.9999 16.6547 19.9999 16.6617C19.9999 16.6687 19.9999 16.6758 19.9999 16.6828C19.9999 16.6899 19.9999 16.697 19.9999 16.7042C19.9999 16.7114 19.9999 16.7186 19.9999 16.7258C19.9999 16.733 19.9999 16.7403 19.9999 16.7476C19.9999 16.755 19.9999 16.7623 19.9999 16.7697C19.9999 16.7771 19.9999 16.7846 19.9999 16.7921C19.9999 16.7995 19.9999 16.8071 19.9999 16.8146C19.9999 16.8222 19.9999 16.8298 19.9999 16.8374C19.9999 16.8451 19.9999 16.8527 19.9999 16.8605C19.9999 16.8682 19.9999 16.876 19.9999 16.8838C19.9999 16.8916 19.9999 16.8994 19.9999 16.9073C19.9999 16.9152 19.9999 16.9231 19.9999 16.931C19.9999 16.939 19.9999 16.947 19.9999 16.955C19.9999 16.9631 19.9999 16.9711 19.9999 16.9792C19.9999 16.9874 19.9999 16.9955 19.9999 17.0037C19.9999 17.0119 19.9999 17.0201 19.9999 17.0284C19.9999 17.0367 19.9999 17.045 19.9999 17.0533C19.9999 17.0617 19.9999 17.0701 19.9999 17.0785C19.9999 17.0869 19.9999 17.0954 19.9999 17.1039C19.9999 17.1124 19.9999 17.1209 19.9999 17.1295C19.9999 17.1381 19.9999 17.1467 19.9999 17.1553C19.9999 17.164 19.9999 17.1727 19.9999 17.1814C19.9999 17.1901 19.9999 17.1989 19.9999 17.2077C19.9999 17.2165 19.9999 17.2253 19.9999 17.2342C19.9999 17.2431 19.9999 17.252 19.9999 17.261C19.9999 17.2699 19.9999 17.2789 19.9999 17.288C19.9999 17.297 19.9999 17.306 19.9999 17.3152C19.9999 17.3243 19.9999 17.3334 19.9999 17.3426C19.9999 17.3518 19.9999 17.361 19.9999 17.3702C19.9999 17.3795 19.9999 17.3888 19.9999 17.3981C19.9999 17.4074 19.9999 17.4168 19.9999 17.4262C19.9999 17.4356 19.9999 17.445 19.9999 17.4545C19.9999 17.464 19.9999 17.4735 19.9999 17.483C19.9999 17.4926 19.9999 17.5021 19.9999 17.5118C19.9999 17.5214 19.9999 17.531 19.9999 17.5407C19.9999 17.5504 19.9999 17.5601 19.9999 17.5699C19.9999 17.5797 19.9999 17.5895 19.9999 17.5993C19.9999 17.6091 19.9999 17.619 19.9999 17.6289C19.9999 17.6388 19.9999 17.6488 19.9999 17.6587C19.9999 17.6687 19.9999 17.6787 19.9999 17.6888C19.9999 17.6988 19.9999 17.7089 19.9999 17.719C19.9999 17.7292 19.9999 17.7393 19.9999 17.7495C19.9999 17.7597 19.9999 17.7699 19.9999 17.7802C19.9999 17.7904 19.9999 17.8007 19.9999 17.8111C19.9999 17.8214 19.9999 17.8317 19.9999 17.8421C19.9999 17.8525 19.9999 17.863 19.9999 17.8734C19.9999 17.8839 19.9999 17.8944 19.9999 17.905C19.9999 17.9155 19.9999 17.9261 19.9999 17.9367C19.9999 17.9473 19.9999 17.9579 19.9999 17.9686C19.9999 17.9793 19.9999 17.99 19.9999 18.0007C19.9999 18.0115 19.9999 18.0222 19.9999 18.0331C19.9999 18.0439 19.9999 18.0547 19.9999 18.0656C19.9999 18.0765 19.9999 18.0874 19.9999 18.0983C19.9999 18.1093 19.9999 18.1203 19.9999 18.1313C19.9999 18.1423 19.9999 18.1533 19.9999 18.1644C19.9999 18.1755 19.9999 18.1866 19.9999 18.1978C19.9999 18.2089 19.9999 18.2201 19.9999 18.2313C19.9999 18.2425 19.9999 18.2538 19.9999 18.265C19.9999 18.2763 19.9999 18.2876 19.9999 18.299C19.9999 18.3103 19.9999 18.3217 19.9999 18.3331C19.9999 18.3445 19.9999 18.356 19.9999 18.3674C19.9999 18.3789 19.9999 18.3904 19.9999 18.402C19.9999 18.4135 19.9999 18.4251 19.9999 18.4367C19.9999 18.4483 19.9999 18.4599 19.9999 18.4716C19.9999 18.4833 19.9999 18.495 19.9999 18.5067C19.9999 18.5185 19.9999 18.5302 19.9999 18.542C19.9999 18.5538 19.9999 18.5656 19.9999 18.5775C19.9999 18.5894 19.9999 18.6013 19.9999 18.6132C19.9999 18.6251 19.9999 18.6371 19.9999 18.6491C19.9999 18.6611 19.9999 18.6731 19.9999 18.6851C19.9999 18.6972 19.9999 18.7093 19.9999 18.7214C19.9999 18.7335 19.9999 18.7456 19.9999 18.7578C19.9999 18.77 19.9999 18.7822 19.9999 18.7944C19.9999 18.8067 19.9999 18.8189 19.9999 18.8312C19.9999 18.8435 19.9999 18.8559 19.9999 18.8682C19.9999 18.8806 19.9999 18.893 19.9999 18.9054C19.9999 18.9178 19.9999 18.9303 19.9999 18.9428C19.9999 18.9553 19.9999 18.9678 19.9999 18.9803C19.9999 18.9929 19.9999 19.0054 19.9999 19.018C19.9999 19.0306 19.9999 19.0433 19.9999 19.056C19.9999 19.0686 19.9999 19.0813 19.9999 19.094C19.9999 19.1068 19.9999 19.1195 19.9999 19.1323C19.9999 19.1451 19.9999 19.1579 19.9999 19.1707C19.9999 19.1836 19.9999 19.1965 19.9999 19.2094C19.9999 19.2223 19.9999 19.2352 19.9999 19.2482C19.9999 19.2611 19.9999 19.2741 19.9999 19.2871C19.9999 19.3002 19.9999 19.3132 19.9999 19.3263C19.9999 19.3394 19.9999 19.3525 19.9999 19.3656C19.9999 19.3787 19.9999 19.3919 19.9999 19.4051C19.9999 19.4183 19.9999 19.4315 19.9999 19.4448C19.9999 19.458 19.9999 19.4713 19.9999 19.4846C19.9999 19.4979 19.9999 19.5113 19.9999 19.5246C19.9999 19.538 19.9999 19.5514 19.9999 19.5648C19.9999 19.5782 19.9999 19.5917 19.9999 19.6052C19.9999 19.6186 19.9999 19.6321 19.9999 19.6457C19.9999 19.6592 19.9999 19.6728 19.9999 19.6864C19.9999 19.7 19.9999 19.7136 19.9999 19.7272C19.9999 19.7409 19.9999 19.7545 19.9999 19.7682C19.9999 19.7819 19.9999 19.7957 19.9999 19.8094C19.9999 19.8232 19.9999 19.837 19.9999 19.8508C19.9999 19.8646 19.9999 19.8784 19.9999 19.8923C19.9999 19.9061 19.9999 19.92 19.9999 19.934C19.9999 19.9479 19.9999 19.9618 19.9999 19.9758C19.9999 19.9898 19.9999 20.0038 19.9999 20.0178C19.9999 20.0318 19.9999 20.0459 19.9999 20.06C19.9999 20.074 19.9999 20.0881 19.9999 20.1023C19.9999 20.1164 19.9999 20.1306 19.9999 20.1448C19.9999 20.1589 19.9999 20.1732 19.9999 20.1874C19.9999 20.2016 19.9999 20.2159 19.9999 20.2302C19.9999 20.2445 19.9999 20.2588 19.9999 20.2731C19.9999 20.2875 19.9999 20.3018 19.9999 20.3162C19.9999 20.3306 19.9999 20.3451 19.9999 20.3595C19.9999 20.3739 19.9999 20.3884 19.9999 20.4029C19.9999 20.4174 19.9999 20.4319 19.9999 20.4465C19.9999 20.461 19.9999 20.4756 19.9999 20.4902C19.9999 20.5048 19.9999 20.5194 19.9999 20.5341C19.9999 20.5487 19.9999 20.5634 19.9999 20.5781C19.9999 20.5928 19.9999 20.6075 19.9999 20.6223C19.9999 20.637 19.9999 20.6518 19.9999 20.6666C19.9999 20.6814 19.9999 20.6962 19.9999 20.7111C19.9999 20.7259 19.9999 20.7408 19.9999 20.7557C19.9999 20.7706 19.9999 20.7855 19.9999 20.8004C19.9999 20.8154 19.9999 20.8303 19.9999 20.8453C19.9999 20.8603 19.9999 20.8753 19.9999 20.8904C19.9999 20.9054 19.9999 20.9205 19.9999 20.9356C19.9999 20.9507 19.9999 20.9658 19.9999 20.9809C19.9999 20.9961 19.9999 21.0112 19.9999 21.0264C19.9999 21.0416 19.9999 21.0568 19.9999 21.072C19.9999 21.0873 19.9999 21.1025 19.9999 21.1178C19.9999 21.1331 19.9999 21.1484 19.9999 21.1637C19.9999 21.179 19.9999 21.1944 19.9999 21.2097C19.9999 21.2251 19.9999 21.2405 19.9999 21.2559C19.9999 21.2713 19.9999 21.2868 19.9999 21.3022C19.9999 21.3177 19.9999 21.3332 19.9999 21.3487C19.9999 21.3642 19.9999 21.3797 19.9999 21.3953C19.9999 21.4108 19.9999 21.4264 19.9999 21.442C19.9999 21.4576 19.9999 21.4732 19.9999 21.4889C19.9999 21.5045 19.9999 21.5202 19.9999 21.5359C19.9999 21.5516 19.9999 21.5673 19.9999 21.583C19.9999 21.5987 19.9999 21.6145 19.9999 21.6303C19.9999 21.646 19.9999 21.6618 19.9999 21.6777C19.9999 21.6935 19.9999 21.7093 19.9999 21.7252C19.9999 21.741 19.9999 21.7569 19.9999 21.7728C19.9999 21.7887 19.9999 21.8047 19.9999 21.8206C19.9999 21.8366 19.9999 21.8525 19.9999 21.8685C19.9999 21.8845 19.9999 21.9005 19.9999 21.9165C19.9999 21.9326 19.9999 21.9486 19.9999 21.9647C19.9999 21.9808 19.9999 21.9969 19.9999 22.013C19.9999 22.0291 19.9999 22.0452 19.9999 22.0614C19.9999 22.0776 19.9999 22.0937 19.9999 22.1099C19.9999 22.1261 19.9999 22.1424 19.9999 22.1586C19.9999 22.1748 19.9999 22.1911 19.9999 22.2074C19.9999 22.2236 19.9999 22.24 19.9999 22.2563C19.9999 22.2726 19.9999 22.2889 19.9999 22.3053C19.9999 22.3216 19.9999 22.338 19.9999 22.3544C19.9999 22.3708 19.9999 22.3872 19.9999 22.4037C19.9999 22.4201 19.9999 22.4366 19.9999 22.4531C19.9999 22.4695 19.9999 22.486 19.9999 22.5026C19.9999 22.5191 19.9999 22.5356 19.9999 22.5522C19.9999 22.5687 19.9999 22.5853 19.9999 22.6019C19.9999 22.6185 19.9999 22.6351 19.9999 22.6517C19.9999 22.6684 19.9999 22.685 19.9999 22.7017C19.9999 22.7184 19.9999 22.735 19.9999 22.7518C19.9999 22.7685 19.9999 22.7852 19.9999 22.8019C19.9999 22.8187 19.9999 22.8354 19.9999 22.8522C19.9999 22.869 19.9999 22.8858 19.9999 22.9026C19.9999 22.9194 19.9999 22.9363 19.9999 22.9531C19.9999 22.97 19.9999 22.9869 19.9999 23.0038C19.9999 23.0206 19.9999 23.0376 19.9999 23.0545C19.9999 23.0714 19.9999 23.0884 19.9999 23.1053C19.9999 23.1223 19.9999 23.1393 19.9999 23.1563C19.9999 23.1733 19.9999 23.1903 19.9999 23.2073C19.9999 23.2243 19.9999 23.2414 19.9999 23.2585C19.9999 23.2755 19.9999 23.2926 19.9999 23.3097C19.9999 23.3268 19.9999 23.3439 19.9999 23.3611C19.9999 23.3782 19.9999 23.3954 19.9999 23.4125C19.9999 23.4297 19.9999 23.4469 19.9999 23.4641C19.9999 23.4813 19.9999 23.4985 19.9999 23.5158C19.9999 23.533 19.9999 23.5503 19.9999 23.5675C19.9999 23.5848 19.9999 23.6021 19.9999 23.6194C19.9999 23.6367 19.9999 23.654 19.9999 23.6714C19.9999 23.6887 19.9999 23.7061 19.9999 23.7234C19.9999 23.7408 19.9999 23.7582 19.9999 23.7756C19.9999 23.793 19.9999 23.8104 19.9999 23.8278C19.9999 23.8453 19.9999 23.8627 19.9999 23.8802C19.9999 23.8977 19.9999 23.9151 19.9999 23.9326C19.9999 23.9501 19.9999 23.9676 19.9999 23.9852C19.9999 24.0027 19.9999 24.0202 19.9999 24.0378C19.9999 24.0554 19.9999 24.0729 19.9999 24.0905C19.9999 24.1081 19.9999 24.1257 19.9999 24.1433C19.9999 24.161 19.9999 24.1786 19.9999 24.1962C19.9999 24.2139 19.9999 24.2315 19.9999 24.2492C19.9999 24.2669 19.9999 24.2846 19.9999 24.3023C19.9999 24.32 19.9999 24.3377 19.9999 24.3555C19.9999 24.3732 19.9999 24.391 19.9999 24.4087C19.9999 24.4265 19.9999 24.4443 19.9999 24.4621C19.9999 24.4799 19.9999 24.4977 19.9999 24.5155C19.9999 24.5333 19.9999 24.5512 19.9999 24.569C19.9999 24.5869 19.9999 24.6047 19.9999 24.6226C19.9999 24.6405 19.9999 24.6584 19.9999 24.6763C19.9999 24.6942 19.9999 24.7121 19.9999 24.73C19.9999 24.748 19.9999 24.7659 19.9999 24.7839C19.9999 24.8018 19.9999 24.8198 19.9999 24.8378C19.9999 24.8558 19.9999 24.8738 19.9999 24.8918C19.9999 24.9098 19.9999 24.9279 19.9999 24.9459C19.9999 24.9639 19.9999 24.982 19.9999 25C19.9999 25.0181 19.9999 25.0362 19.9999 25.0543C19.9999 25.0724 19.9999 25.0905 19.9999 25.1086C19.9999 25.1267 19.9999 25.1448 19.9999 25.163C19.9999 25.1811 19.9999 25.1993 19.9999 25.2174C19.9999 25.2356 19.9999 25.2538 19.9999 25.272C19.9999 25.2902 19.9999 25.3084 19.9999 25.3266C19.9999 25.3448 19.9999 25.363 19.9999 25.3813C19.9999 25.3995 19.9999 25.4178 19.9999 25.436C19.9999 25.4543 19.9999 25.4726 19.9999 25.4909C19.9999 25.5091 19.9999 25.5274 19.9999 25.5457C19.9999 25.5641 19.9999 25.5824 19.9999 25.6007C19.9999 25.619 19.9999 25.6374 19.9999 25.6557C19.9999 25.6741 19.9999 25.6925 19.9999 25.7108C19.9999 25.7292 19.9999 25.7476 19.9999 25.766C19.9999 25.7844 19.9999 25.8028 19.9999 25.8212C19.9999 25.8397 19.9999 25.8581 19.9999 25.8765C19.9999 25.895 19.9999 25.9134 19.9999 25.9319C19.9999 25.9504 19.9999 25.9688 19.9999 25.9873C19.9999 26.0058 19.9999 26.0243 19.9999 26.0428C19.9999 26.0613 19.9999 26.0798 19.9999 26.0983C19.9999 26.1169 19.9999 26.1354 19.9999 26.154C19.9999 26.1725 19.9999 26.1911 19.9999 26.2096C19.9999 26.2282 19.9999 26.2468 19.9999 26.2654C19.9999 26.2839 19.9999 26.3025 19.9999 26.3211C19.9999 26.3397 19.9999 26.3584 19.9999 26.377C19.9999 26.3956 19.9999 26.4142 19.9999 26.4329C19.9999 26.4515 19.9999 26.4702 19.9999 26.4888C19.9999 26.5075 19.9999 26.5262 19.9999 26.5449C19.9999 26.5635 19.9999 26.5822 19.9999 26.6009C19.9999 26.6196 19.9999 26.6383 19.9999 26.657C19.9999 26.6758 19.9999 26.6945 19.9999 26.7132C19.9999 26.7319 19.9999 26.7507 19.9999 26.7694C19.9999 26.7882 19.9999 26.8069 19.9999 26.8257C19.9999 26.8445 19.9999 26.8633 19.9999 26.882C19.9999 26.9008 19.9999 26.9196 19.9999 26.9384C19.9999 26.9572 19.9999 26.976 19.9999 26.9948C19.9999 27.0137 19.9999 27.0325 19.9999 27.0513C19.9999 27.0701 19.9999 27.089 19.9999 27.1078C19.9999 27.1267 19.9999 27.1455 19.9999 27.1644C19.9999 27.1833 19.9999 27.2021 19.9999 27.221C19.9999 27.2399 19.9999 27.2588 19.9999 27.2777C19.9999 27.2966 19.9999 27.3155 19.9999 27.3344C19.9999 27.3533 19.9999 27.3722 19.9999 27.3911C19.9999 27.41 19.9999 27.429 19.9999 27.4479C19.9999 27.4668 19.9999 27.4858 19.9999 27.5047C19.9999 27.5237 19.9999 27.5426 19.9999 27.5616C19.9999 27.5805 19.9999 27.5995 19.9999 27.6185C19.9999 27.6375 19.9999 27.6564 19.9999 27.6754C19.9999 27.6944 19.9999 27.7134 19.9999 27.7324C19.9999 27.7514 19.9999 27.7704 19.9999 27.7894C19.9999 27.8084 19.9999 27.8275 19.9999 27.8465C19.9999 27.8655 19.9999 27.8845 19.9999 27.9036C19.9999 27.9226 19.9999 27.9417 19.9999 27.9607C19.9999 27.9798 19.9999 27.9988 19.9999 28.0179C19.9999 28.0369 19.9999 28.056 19.9999 28.0751C19.9999 28.0941 19.9999 28.1132 19.9999 28.1323C19.9999 28.1514 19.9999 28.1705 19.9999 28.1895C19.9999 28.2086 19.9999 28.2277 19.9999 28.2468C19.9999 28.2659 19.9999 28.285 19.9999 28.3042C19.9999 28.3233 19.9999 28.3424 19.9999 28.3615C19.9999 28.3806 19.9999 28.3997 19.9999 28.4189C19.9999 28.438 19.9999 28.4571 19.9999 28.4763C19.9999 28.4954 19.9999 28.5146 19.9999 28.5337C19.9999 28.5529 19.9999 28.572 19.9999 28.5912C19.9999 28.6103 19.9999 28.6295 19.9999 28.6486C19.9999 28.6678 19.9999 28.687 19.9999 28.7062C19.9999 28.7253 19.9999 28.7445 19.9999 28.7637C19.9999 28.7829 19.9999 28.802 19.9999 28.8212C19.9999 28.8404 19.9999 28.8596 19.9999 28.8788C19.9999 28.898 19.9999 28.9172 19.9999 28.9364C19.9999 28.9556 19.9999 28.9748 19.9999 28.994C19.9999 29.0132 19.9999 29.0324 19.9999 29.0516C19.9999 29.0709 19.9999 29.0901 19.9999 29.1093C19.9999 29.1285 19.9999 29.1477 19.9999 29.167C19.9999 29.1862 19.9999 29.2054 19.9999 29.2247C19.9999 29.2439 19.9999 29.2631 19.9999 29.2824C19.9999 29.3016 19.9999 29.3208 19.9999 29.3401C19.9999 29.3593 19.9999 29.3786 19.9999 29.3978C19.9999 29.417 19.9999 29.4363 19.9999 29.4555C19.9999 29.4748 19.9999 29.4941 19.9999 29.5133C19.9999 29.5326 19.9999 29.5518 19.9999 29.5711C19.9999 29.5903 19.9999 29.6096 19.9999 29.6289C19.9999 29.6481 19.9999 29.6674 19.9999 29.6866C19.9999 29.7059 19.9999 29.7252 19.9999 29.7444C19.9999 29.7637 19.9999 29.783 19.9999 29.8023C19.9999 29.8215 19.9999 29.8408 19.9999 29.8601C19.9999 29.8794 19.9999 29.8986 19.9999 29.9179C19.9999 29.9372 19.9999 29.9565 19.9999 29.9757C19.9999 29.995 19.9999 30.0143 19.9999 30.0336C19.9999 30.0529 19.9999 30.0721 19.9999 30.0914C19.9999 30.1107 19.9999 30.13 19.9999 30.1493C19.9999 30.1685 19.9999 30.1878 19.9999 30.2071C19.9999 30.2264 19.9999 30.2457 19.9999 30.265C19.9999 30.2842 19.9999 30.3035 19.9999 30.3228C19.9999 30.3421 19.9999 30.3614 19.9999 30.3807C19.9999 30.3999 19.9999 30.4192 19.9999 30.4385C19.9999 30.4578 19.9999 30.4771 19.9999 30.4964C19.9999 30.5156 19.9999 30.5349 19.9999 30.5542C19.9999 30.5735 19.9999 30.5928 19.9999 30.6121C19.9999 30.6313 19.9999 30.6506 19.9999 30.6699C19.9999 30.6892 19.9999 30.7085 19.9999 30.7277C19.9999 30.747 19.9999 30.7663 19.9999 30.7856C19.9999 30.8048 19.9999 30.8241 19.9999 30.8434C19.9999 30.8627 19.9999 30.8819 19.9999 30.9012C19.9999 30.9205 19.9999 30.9398 19.9999 30.959C19.9999 30.9783 19.9999 30.9976 19.9999 31.0168C19.9999 31.0361 19.9999 31.0554 19.9999 31.0746C19.9999 31.0939 19.9999 31.1132 19.9999 31.1324C19.9999 31.1517 19.9999 31.1709 19.9999 31.1902C19.9999 31.2094 19.9999 31.2287 19.9999 31.248C19.9999 31.2672 19.9999 31.2865 19.9999 31.3057C19.9999 31.325 19.9999 31.3442 19.9999 31.3634C19.9999 31.3827 19.9999 31.4019 19.9999 31.4212C19.9999 31.4404 19.9999 31.4596 19.9999 31.4789C19.9999 31.4981 19.9999 31.5173 19.9999 31.5366C19.9999 31.5558 19.9999 31.575 19.9999 31.5942C19.9999 31.6135 19.9999 31.6327 19.9999 31.6519C19.9999 31.6711 19.9999 31.6903 19.9999 31.7095C19.9999 31.7287 19.9999 31.748 19.9999 31.7672C19.9999 31.7864 19.9999 31.8056 19.9999 31.8248C19.9999 31.844 19.9999 31.8631 19.9999 31.8823C19.9999 31.9015 19.9999 31.9207 19.9999 31.9399C19.9999 31.9591 19.9999 31.9783 19.9999 31.9974C19.9999 32.0166 19.9999 32.0358 19.9999 32.0549C19.9999 32.0741 19.9999 32.0933 19.9999 32.1124C19.9999 32.1316 19.9999 32.1508 19.9999 32.1699C19.9999 32.1891 19.9999 32.2082 19.9999 32.2273C19.9999 32.2465 19.9999 32.2656 19.9999 32.2848C19.9999 32.3039 19.9999 32.323 19.9999 32.3421C19.9999 32.3613 19.9999 32.3804 19.9999 32.3995C19.9999 32.4186 19.9999 32.4377 19.9999 32.4568C19.9999 32.4759 19.9999 32.495 19.9999 32.5141C19.9999 32.5332 19.9999 32.5523 19.9999 32.5714C19.9999 32.5905 19.9999 32.6096 19.9999 32.6286C19.9999 32.6477 19.9999 32.6668 19.9999 32.6858C19.9999 32.7049 19.9999 32.724 19.9999 32.743C19.9999 32.7621 19.9999 32.7811 19.9999 32.8002C19.9999 32.8192 19.9999 32.8382 19.9999 32.8573C19.9999 32.8763 19.9999 32.8953 19.9999 32.9143C19.9999 32.9333 19.9999 32.9524 19.9999 32.9714C19.9999 32.9904 19.9999 33.0094 19.9999 33.0284C19.9999 33.0473 19.9999 33.0663 19.9999 33.0853C19.9999 33.1043 19.9999 33.1233 19.9999 33.1422C19.9999 33.1612 19.9999 33.1802 19.9999 33.1991C19.9999 33.2181 19.9999 33.237 19.9999 33.256C19.9999 33.2749 19.9999 33.2938 19.9999 33.3128C19.9999 33.3317 19.9999 33.3506 19.9999 33.3695C19.9999 33.3884 19.9999 33.4073 19.9999 33.4262C19.9999 33.4451 19.9999 33.464 19.9999 33.4829C19.9999 33.5018 19.9999 33.5207 19.9999 33.5395C19.9999 33.5584 19.9999 33.5773 19.9999 33.5961C19.9999 33.615 19.9999 33.6338 19.9999 33.6526C19.9999 33.6715 19.9999 33.6903 19.9999 33.7091C19.9999 33.728 19.9999 33.7468 19.9999 33.7656C19.9999 33.7844 19.9999 33.8032 19.9999 33.822C19.9999 33.8408 19.9999 33.8595 19.9999 33.8783C19.9999 33.8971 19.9999 33.9158 19.9999 33.9346C19.9999 33.9534 19.9999 33.9721 19.9999 33.9908C19.9999 34.0096 19.9999 34.0283 19.9999 34.047C19.9999 34.0658 19.9999 34.0845 19.9999 34.1032C19.9999 34.1219 19.9999 34.1406 19.9999 34.1593C19.9999 34.1779 19.9999 34.1966 19.9999 34.2153C19.9999 34.234 19.9999 34.2526 19.9999 34.2713C19.9999 34.2899 19.9999 34.3086 19.9999 34.3272C19.9999 34.3458 19.9999 34.3644 19.9999 34.3831C19.9999 34.4017 19.9999 34.4203 19.9999 34.4389C19.9999 34.4575 19.9999 34.476 19.9999 34.4946C19.9999 34.5132 19.9999 34.5317 19.9999 34.5503C19.9999 34.5689 19.9999 34.5874 19.9999 34.6059C19.9999 34.6245 19.9999 34.643 19.9999 34.6615C19.9999 34.68 19.9999 34.6985 19.9999 34.717C19.9999 34.7355 19.9999 34.754 19.9999 34.7725C19.9999 34.7909 19.9999 34.8094 19.9999 34.8278C19.9999 34.8463 19.9999 34.8647 19.9999 34.8832C19.9999 34.9016 19.9999 34.92 19.9999 34.9384C19.9999 34.9568 19.9999 34.9752 19.9999 34.9936C19.9999 35.012 19.9999 35.0304 19.9999 35.0487C19.9999 35.0671 19.9999 35.0854 19.9999 35.1038C19.9999 35.1221 19.9999 35.1404 19.9999 35.1588C19.9999 35.1771 19.9999 35.1954 19.9999 35.2137C19.9999 35.232 19.9999 35.2503 19.9999 35.2685C19.9999 35.2868 19.9999 35.3051 19.9999 35.3233C19.9999 35.3416 19.9999 35.3598 19.9999 35.378C19.9999 35.3962 19.9999 35.4145 19.9999 35.4327C19.9999 35.4509 19.9999 35.469 19.9999 35.4872C19.9999 35.5054 19.9999 35.5236 19.9999 35.5417C19.9999 35.5599 19.9999 35.578 19.9999 35.5961C19.9999 35.6142 19.9999 35.6324 19.9999 35.6505C19.9999 35.6686 19.9999 35.6866 19.9999 35.7047C19.9999 35.7228 19.9999 35.7409 19.9999 35.7589C19.9999 35.777 19.9999 35.795 19.9999 35.813C19.9999 35.831 19.9999 35.8491 19.9999 35.8671C19.9999 35.885 19.9999 35.903 19.9999 35.921C19.9999 35.939 19.9999 35.9569 19.9999 35.9749C19.9999 35.9928 19.9999 36.0107 19.9999 36.0287C19.9999 36.0466 19.9999 36.0645 19.9999 36.0824C19.9999 36.1003 19.9999 36.1181 19.9999 36.136C19.9999 36.1539 19.9999 36.1717 19.9999 36.1895C19.9999 36.2074 19.9999 36.2252 19.9999 36.243C19.9999 36.2608 19.9999 36.2786 19.9999 36.2964C19.9999 36.3141 19.9999 36.3319 19.9999 36.3497C19.9999 36.3674 19.9999 36.3851 19.9999 36.4029C19.9999 36.4206 19.9999 36.4383 19.9999 36.456C19.9999 36.4737 19.9999 36.4913 19.9999 36.509C19.9999 36.5266 19.9999 36.5443 19.9999 36.5619C19.9999 36.5796 19.9999 36.5972 19.9999 36.6148C19.9999 36.6324 19.9999 36.65 19.9999 36.6675C19.9999 36.6851 19.9999 36.7026 19.9999 36.7202C19.9999 36.7377 19.9999 36.7552 19.9999 36.7728C19.9999 36.7903 19.9999 36.8078 19.9999 36.8252C19.9999 36.8427 19.9999 36.8602 19.9999 36.8776C19.9999 36.8951 19.9999 36.9125 19.9999 36.9299C19.9999 36.9473 19.9999 36.9647 19.9999 36.9821C19.9999 36.9995 19.9999 37.0168 19.9999 37.0342C19.9999 37.0515 19.9999 37.0689 19.9999 37.0862C19.9999 37.1035 19.9999 37.1208 19.9999 37.1381C19.9999 37.1554 19.9999 37.1726 19.9999 37.1899C19.9999 37.2071 19.9999 37.2244 19.9999 37.2416C19.9999 37.2588 19.9999 37.276 19.9999 37.2932C19.9999 37.3104 19.9999 37.3275 19.9999 37.3447C19.9999 37.3618 19.9999 37.379 19.9999 37.3961C19.9999 37.4132 19.9999 37.4303 19.9999 37.4474C19.9999 37.4645 19.9999 37.4815 19.9999 37.4986C19.9999 37.5156 19.9999 37.5326 19.9999 37.5497C19.9999 37.5667 19.9999 37.5837 19.9999 37.6006C19.9999 37.6176 19.9999 37.6346 19.9999 37.6515C19.9999 37.6685 19.9999 37.6854 19.9999 37.7023C19.9999 37.7192 19.9999 37.7361 19.9999 37.7529C19.9999 37.7698 19.9999 37.7867 19.9999 37.8035C19.9999 37.8203 19.9999 37.8371 19.9999 37.8539H17.9999ZM18.0123 15.9911C17.7709 14.4704 17.0558 11.8803 15.6983 9.1791C14.3409 6.47801 12.3742 3.73158 9.66583 1.8165L10.8205 0.183505C13.8814 2.34785 16.0355 5.39606 17.4853 8.28101C18.9352 11.1659 19.7139 13.9532 19.9876 15.6775L18.0123 15.9911ZM18.9999 38.8539H10.2432V36.8539H18.9999V38.8539Z" fill="#585858"/>
</svg>
