<svg width="327" height="99" viewBox="0 0 327 99" fill="none" xmlns="http://www.w3.org/2000/svg">
<path d="M148 11C148 4.92487 152.925 0 159 0H315C321.075 0 326 4.92487 326 11V88C326 94.0751 321.075 99 315 99H159C152.925 99 148 94.0751 148 88V11Z" fill="#FE9800"/>
<path d="M21.7009 78V32.56H3.78094V22H52.5809V32.56H34.6609V78H21.7009ZM57.7366 78V34.96H69.6566V47.12L67.9766 43.6C69.2566 40.56 71.3099 38.2667 74.1366 36.72C76.9632 35.12 80.4032 34.32 84.4566 34.32V45.84C83.9232 45.7867 83.4432 45.76 83.0166 45.76C82.5899 45.7067 82.1366 45.68 81.6566 45.68C78.2432 45.68 75.4699 46.6667 73.3366 48.64C71.2566 50.56 70.2166 53.5733 70.2166 57.68V78H57.7366ZM98.8016 94.16C96.5616 94.16 94.3482 93.8133 92.1616 93.12C89.9749 92.4267 88.1882 91.4667 86.8016 90.24L91.3616 81.36C92.3216 82.2133 93.4149 82.88 94.6416 83.36C95.9216 83.84 97.1749 84.08 98.4016 84.08C100.162 84.08 101.548 83.6533 102.562 82.8C103.628 82 104.588 80.64 105.442 78.72L107.682 73.44L108.642 72.08L124.082 34.96H136.082L116.642 80.64C115.255 84.1067 113.655 86.8267 111.842 88.8C110.082 90.7733 108.108 92.16 105.922 92.96C103.788 93.76 101.415 94.16 98.8016 94.16ZM106.162 79.68L86.9616 34.96H99.8416L114.722 70.96L106.162 79.68Z" fill="white"/>
<path d="M189.99 34.32C193.404 34.32 196.444 35.0133 199.11 36.4C201.83 37.7333 203.964 39.8133 205.51 42.64C207.057 45.4133 207.83 48.9867 207.83 53.36V78H195.35V55.28C195.35 51.8133 194.577 49.2533 193.03 47.6C191.537 45.9467 189.404 45.12 186.63 45.12C184.657 45.12 182.87 45.5467 181.27 46.4C179.724 47.2 178.497 48.4533 177.59 50.16C176.737 51.8667 176.31 54.0533 176.31 56.72V78H163.83V18.64H176.31V46.88L173.51 43.28C175.057 40.4 177.27 38.1867 180.15 36.64C183.03 35.0933 186.31 34.32 189.99 34.32ZM237.303 78.64C233.729 78.64 230.529 77.9467 227.703 76.56C224.929 75.1733 222.769 73.0667 221.223 70.24C219.676 67.36 218.903 63.7067 218.903 59.28V34.96H231.383V57.44C231.383 61.0133 232.129 63.6533 233.623 65.36C235.169 67.0133 237.329 67.84 240.103 67.84C242.023 67.84 243.729 67.44 245.223 66.64C246.716 65.7867 247.889 64.5067 248.743 62.8C249.596 61.04 250.023 58.8533 250.023 56.24V34.96H262.503V78H250.663V66.16L252.823 69.6C251.383 72.5867 249.249 74.8533 246.423 76.4C243.649 77.8933 240.609 78.64 237.303 78.64ZM299.505 78.64C295.718 78.64 292.465 77.84 289.745 76.24C287.025 74.64 284.945 72.2133 283.505 68.96C282.065 65.6533 281.345 61.4933 281.345 56.48C281.345 51.4133 282.091 47.2533 283.585 44C285.131 40.7467 287.265 38.32 289.985 36.72C292.705 35.12 295.878 34.32 299.505 34.32C303.558 34.32 307.185 35.2267 310.385 37.04C313.638 38.8533 316.198 41.4133 318.065 44.72C319.985 48.0267 320.945 51.9467 320.945 56.48C320.945 60.96 319.985 64.8533 318.065 68.16C316.198 71.4667 313.638 74.0533 310.385 75.92C307.185 77.7333 303.558 78.64 299.505 78.64ZM274.065 78V18.64H286.545V43.68L285.745 56.4L285.985 69.2V78H274.065ZM297.345 68.4C299.425 68.4 301.265 67.92 302.865 66.96C304.518 66 305.825 64.64 306.785 62.88C307.798 61.0667 308.305 58.9333 308.305 56.48C308.305 53.9733 307.798 51.84 306.785 50.08C305.825 48.32 304.518 46.96 302.865 46C301.265 45.04 299.425 44.56 297.345 44.56C295.265 44.56 293.398 45.04 291.745 46C290.091 46.96 288.785 48.32 287.825 50.08C286.865 51.84 286.385 53.9733 286.385 56.48C286.385 58.9333 286.865 61.0667 287.825 62.88C288.785 64.64 290.091 66 291.745 66.96C293.398 67.92 295.265 68.4 297.345 68.4Z" fill="black"/>
</svg>
